<svg width="319" height="110" viewBox="0 0 319 110" fill="none" xmlns="http://www.w3.org/2000/svg">
<path d="M0.999023 12.4658C0.999023 10.0843 1.48844 8.00553 2.46729 6.22949C3.45622 4.45345 4.80339 3.09115 6.50879 2.14258C8.21419 1.19401 10.1214 0.719727 12.2305 0.719727C13.1992 0.719727 14.1326 0.790365 15.0308 0.931641C15.939 1.07292 16.9632 1.2596 18.1035 1.4917L18.9209 1.6582L18.6333 7.31934H16.3779L15.5303 3.45947C15.3184 3.17692 14.8895 2.95492 14.2437 2.79346C13.5978 2.62191 12.7502 2.53613 11.7007 2.53613C10.409 2.53613 9.26367 2.90446 8.26465 3.64111C7.27572 4.37777 6.4987 5.46761 5.93359 6.91064C5.37858 8.34359 5.10107 10.0742 5.10107 12.1025C5.10107 13.9795 5.34831 15.7101 5.84277 17.2944C6.34733 18.8687 7.1193 20.1401 8.15869 21.1089C9.20817 22.0675 10.515 22.5469 12.0791 22.5469C13.7038 22.5469 14.8693 22.1735 15.5757 21.4268L16.8926 18.2329L19.042 18.5205L18.376 23.1523C18.1035 23.1725 17.8411 23.2179 17.5889 23.2886C17.3366 23.3491 17.0086 23.45 16.605 23.5913C15.9188 23.8335 15.2629 24.0202 14.6372 24.1514C14.0116 24.2826 13.2396 24.3481 12.3213 24.3481C9.9196 24.3481 7.87109 23.8789 6.17578 22.9404C4.48047 21.9919 3.19385 20.6296 2.31592 18.8535C1.43799 17.0775 0.999023 14.9482 0.999023 12.4658Z" fill="#939598"/>
<path d="M21.5093 15.3569C21.5093 13.5809 21.8574 12.0067 22.5537 10.6343C23.25 9.26188 24.2137 8.20231 25.4448 7.45557C26.6759 6.69873 28.0736 6.32031 29.6377 6.32031C31.5752 6.32031 33.0737 6.8501 34.1333 7.90967C35.1929 8.96924 35.758 10.498 35.8286 12.4961V13.041C35.8286 14.1006 35.7681 14.9079 35.647 15.4629H25.1572C25.1976 16.9463 25.4499 18.1774 25.9141 19.1562C26.3783 20.1351 26.9888 20.8566 27.7456 21.3208C28.5024 21.785 29.3551 22.0171 30.3037 22.0171C31.1312 22.0171 31.9788 21.8758 32.8467 21.5933C33.7246 21.3006 34.4108 20.9676 34.9053 20.5942L35.541 22.0474C35.1576 22.4409 34.6278 22.8143 33.9517 23.1675C33.2856 23.5207 32.5389 23.8032 31.7114 24.0151C30.894 24.2371 30.0817 24.3481 29.2744 24.3481C27.5791 24.3481 26.1462 23.9748 24.9756 23.228C23.8151 22.4712 22.9473 21.4217 22.3721 20.0796C21.7969 18.7274 21.5093 17.1532 21.5093 15.3569ZM32.1958 13.707C32.2362 13.3438 32.2563 12.9098 32.2563 12.4053C32.2463 11.1237 31.9788 10.0944 31.4541 9.31738C30.9294 8.54036 30.1019 8.15186 28.9717 8.15186C27.8415 8.15186 26.9434 8.57568 26.2773 9.42334C25.6214 10.2609 25.248 11.6888 25.1572 13.707H32.1958Z" fill="#939598"/>
<path d="M40.5815 22.0928V9.4082L38.417 8.80273V6.98633L42.8975 6.38086H42.9731L43.6846 6.97119V8.19727L43.6694 8.89355C44.1336 8.47982 44.7139 8.08122 45.4102 7.69775C46.1165 7.31429 46.8683 7.00146 47.6655 6.75928C48.4728 6.51709 49.2347 6.396 49.9512 6.396C51.263 6.396 52.2772 6.64323 52.9937 7.1377C53.7101 7.62207 54.2096 8.37386 54.4922 9.39307C54.7747 10.4123 54.916 11.7948 54.916 13.5405V22.0928L57.0957 22.3501V24H49.4971V22.3501L51.4346 22.0928V13.5254C51.4346 12.3548 51.3538 11.4365 51.1924 10.7705C51.041 10.0944 50.7484 9.58984 50.3145 9.25684C49.8805 8.91374 49.2397 8.74219 48.3921 8.74219C47.6655 8.74219 46.9087 8.8986 46.1216 9.21143C45.3345 9.52425 44.6432 9.90267 44.0479 10.3467V22.0928L46.1367 22.3501V24H38.5986V22.3501L40.5815 22.0928Z" fill="#939598"/>
<path d="M58.897 8.9541V7.51611C59.1795 7.44548 59.5024 7.34456 59.8657 7.21338C60.2391 7.08219 60.4813 6.98128 60.5923 6.91064C60.9253 6.66846 61.1978 6.2749 61.4097 5.72998C61.561 5.38688 61.7578 4.84196 62 4.09521C62.2523 3.33838 62.4238 2.76823 62.5146 2.38477H64.4824L64.5127 6.78955H69.5986V8.9541H64.5278V18.1118C64.5278 19.3429 64.5632 20.2007 64.6338 20.6851C64.7044 21.1593 64.8457 21.4671 65.0576 21.6084C65.2796 21.7396 65.6782 21.8052 66.2534 21.8052H66.2686C66.7933 21.8052 67.3836 21.7396 68.0396 21.6084C68.7056 21.4772 69.2202 21.341 69.5835 21.1997H69.5986L70.1133 22.668C69.8105 22.9202 69.3564 23.1776 68.751 23.4399C68.1455 23.6922 67.4946 23.9041 66.7983 24.0757C66.1021 24.2472 65.4613 24.333 64.876 24.333H64.8457C63.5944 24.333 62.6509 24.0605 62.0151 23.5156C61.3794 22.9606 61.0615 22.0373 61.0615 20.7456V8.9541H58.897Z" fill="#939598"/>
<path d="M74.291 22.123V9.4082L72.1416 8.80273V6.98633L76.4707 6.38086H76.5464L77.2729 6.97119V7.9248L77.2427 9.89258H77.2729C77.4546 9.55957 77.8027 9.11556 78.3174 8.56055C78.8421 7.99544 79.5132 7.48079 80.3306 7.0166C81.158 6.55241 82.0562 6.32031 83.0249 6.32031C83.4185 6.32031 83.7515 6.37581 84.0239 6.48682V10.2104C83.8322 10.0994 83.5749 10.0086 83.252 9.93799C82.9391 9.85726 82.6011 9.81689 82.2378 9.81689C81.2186 9.81689 80.3356 9.94303 79.5889 10.1953C78.8522 10.4375 78.2367 10.7453 77.7422 11.1187V22.1079L81.7231 22.3804V24H71.9146V22.3652L74.291 22.123Z" fill="#939598"/>
<path d="M98.54 21.9414C97.8942 22.5671 97.0768 23.1271 96.0879 23.6216C95.099 24.106 94.0999 24.3481 93.0908 24.3481C91.8294 24.3481 90.8052 24.1261 90.0181 23.6821C89.231 23.228 88.6507 22.5116 88.2773 21.5327C87.904 20.5539 87.7173 19.2622 87.7173 17.6577V8.87842L86.0371 8.31836V6.8501L90.5176 6.396H90.5327L91.1685 6.80469V17.4912C91.1685 18.6416 91.2542 19.5397 91.4258 20.1855C91.5973 20.8314 91.9001 21.3057 92.334 21.6084C92.7679 21.901 93.3936 22.0474 94.2109 22.0474C94.998 22.0474 95.7297 21.896 96.4058 21.5933C97.0819 21.2905 97.6672 20.9424 98.1616 20.5488V8.89355L95.9971 8.30322V6.83496L100.78 6.396H100.811L101.613 6.80469V22.2896H103.429V23.8032C102.844 23.9748 102.334 24.106 101.9 24.1968C101.477 24.2977 100.987 24.3481 100.432 24.3481C99.7863 24.3481 99.307 24.2271 98.9941 23.9849C98.6914 23.7326 98.54 23.3138 98.54 22.7285V21.9414Z" fill="#939598"/>
<path d="M108.122 22.1079V9.4082L105.957 8.80273V6.98633L110.422 6.38086H110.498L111.225 6.97119V8.19727L111.194 8.89355C111.648 8.47982 112.234 8.08122 112.95 7.69775C113.677 7.31429 114.439 7.00146 115.236 6.75928C116.043 6.51709 116.775 6.396 117.431 6.396C118.541 6.396 119.434 6.58268 120.11 6.95605C120.786 7.32943 121.301 7.90967 121.654 8.69678C122.047 8.35368 122.587 8.00553 123.273 7.65234C123.97 7.28906 124.711 6.99137 125.499 6.75928C126.286 6.51709 127.017 6.396 127.693 6.396C129.005 6.396 130.024 6.64323 130.751 7.1377C131.478 7.62207 131.987 8.37386 132.28 9.39307C132.572 10.4022 132.719 11.7695 132.719 13.4951V22.1079L134.883 22.3652V24H127.466V22.3652L129.252 22.0928V13.6011C129.252 12.4204 129.167 11.487 128.995 10.8008C128.824 10.1146 128.501 9.59993 128.026 9.25684C127.552 8.90365 126.871 8.72705 125.983 8.72705C125.367 8.72705 124.696 8.86833 123.97 9.15088C123.243 9.43343 122.618 9.76139 122.093 10.1348C122.274 11.0026 122.365 12.1379 122.365 13.5405V22.0928L124.575 22.3652V24H116.886V22.3652L118.899 22.0928V13.5254C118.899 12.3447 118.823 11.4214 118.672 10.7554C118.521 10.0894 118.223 9.58984 117.779 9.25684C117.345 8.91374 116.704 8.74219 115.856 8.74219C115.15 8.74219 114.408 8.89355 113.631 9.19629C112.854 9.49902 112.173 9.8724 111.588 10.3164V22.0928L113.616 22.3652V24H106.229V22.3652L108.122 22.1079Z" fill="#939598"/>
<path fill-rule="evenodd" clip-rule="evenodd" d="M290.9 42L319 109.999L263 109.977L290.9 42Z" fill="#EF5F69"/>
<path fill-rule="evenodd" clip-rule="evenodd" d="M260 42L235.001 76.0084L259.963 110L210 109.98L210.028 42H260Z" fill="#FBB85B"/>
<path fill-rule="evenodd" clip-rule="evenodd" d="M180.021 42L195 42.0052L194.98 110L180 109.996L180.021 42Z" fill="#EF5F69"/>
<path fill-rule="evenodd" clip-rule="evenodd" d="M153.142 42C153.29 42 159.276 42.0113 160.699 42.014L161 42.0146L160.973 110L152.943 109.98C133.622 109.882 117.994 94.6966 118 75.9791C118.009 57.2063 133.74 41.9937 153.142 42Z" fill="#4190C8"/>
<path fill-rule="evenodd" clip-rule="evenodd" d="M77.0131 42C95.7902 42.0084 111.008 57.2365 111 76.0131C110.992 94.7917 95.7651 110.006 76.9859 110C58.2098 109.993 42.9927 94.7645 43 75.987C43.0084 57.2094 58.2359 41.9937 77.0131 42Z" fill="#6DC6B8"/>
<path fill-rule="evenodd" clip-rule="evenodd" d="M0.0278695 42L50 110L0 109.981L0.0278695 42Z" fill="#FBB85B"/>
</svg>
