<svg id="Vrstva_1" data-name="Vrstva 1" xmlns="http://www.w3.org/2000/svg" viewBox="0 0 428.91 185.87"><path d="M413.84 371.33q-.25 4.11-4.88 8.29a14.7 14.7 0 01-10 4.18q-5.4 0-7.46-2.7c-1.38-1.8-2.06-4.33-2.06-7.59v-12.85c0-3.26.68-5.79 2.06-7.59s3.86-2.7 7.46-2.7h14.91zm9-49.25q0-8.61-5.21-13.31t-15.49-4.69q-10.29 0-15.37 4.69t-5.07 13.31v7.07h9v-7.58q0-9.78 11.44-9.78 5.79 0 8.74 2.58a9 9 0 013 7.2v21.08h-14.95q-18.53 0-18.52 18v12.85q0 18 18.52 18a17.72 17.72 0 009.64-2.77 21.32 21.32 0 007.07-7.39l3.35 8.23h3.85zM322.93 351h25.34v38.58h9V306h-9v37.3h-25.34V306h-9v83.58h9zm-42.43 20.33q-.25 4.11-4.89 8.29a14.66 14.66 0 01-10 4.18c-3.59 0-6.08-.9-7.45-2.7s-2.06-4.33-2.06-7.59v-12.85q0-4.89 2.06-7.59c1.37-1.8 3.86-2.7 7.45-2.7h14.89zm9-49.25q0-8.61-5.21-13.31t-15.49-4.69q-10.29 0-15.36 4.69t-5.08 13.31v7.07h9v-7.58q0-9.78 11.44-9.78 5.79 0 8.74 2.58a9 9 0 013 7.2v21.08h-14.96q-18.51 0-18.51 18v12.85q0 18 18.51 18a17.71 17.71 0 009.65-2.77 21.32 21.32 0 007.07-7.39l3.34 8.23h3.86zm-82.8 30.22h-10.42v-38.58h10.42q5.52 0 8.48 2.7a9.76 9.76 0 013 7.59v18q0 10.29-11.44 10.29m-10.46 7.7h10.42l15 29.58h9.9l-15.82-30.86q11.33-3.6 11.32-16.72v-18q0-8.49-5.21-13.24T206.7 306h-19.42v83.58h9zm-46.16-3.85h-10.41v-42.43h10.41c3.69 0 6.51.9 8.49 2.7a9.76 9.76 0 012.95 7.59v21.86q0 10.29-11.44 10.29m-10.41 7.71h10.41q10.15 0 15.3-4.69t5.15-13.31V324q0-8.49-5.21-13.24T150.12 306H130.7v83.58h9zm67.13-111.94h-10.42v-38.57h10.42q5.52 0 8.48 2.7a9.76 9.76 0 013 7.58v18q0 10.29-11.44 10.28m-10.42 7.72h10.42l15 29.57h9.9L216 258.36q11.32-3.6 11.32-16.71v-18q0-8.47-5.21-13.24t-15.23-4.76h-19.46v83.58h9zm-46.16-3.86h-10.46v-42.42h10.42c3.69 0 6.51.9 8.49 2.7a9.75 9.75 0 012.95 7.58v21.86q0 10.29-11.44 10.29m-10.42 7.72h10.42q10.16 0 15.3-4.7t5.15-13.31v-21.86q0-8.47-5.21-13.24t-15.24-4.76h-19.42v83.58h9zm-34.71 18v-68.15h6.43v-7.72H89.7v7.72h6.43v68.15H89.7v7.71h21.86v-7.71z" transform="translate(-89.7 -205.64)" fill="#1d1d1b"/><path fill="#1d1d1b" d="M160.08 26.37h268.83v9.03H160.08z"/></svg>