<svg xmlns="http://www.w3.org/2000/svg" viewBox="0 0 794.48 113.39"><defs><style>.cls-1{fill:#004383;}.cls-2{fill:#373737;}</style></defs><g id="Vrstva_2" data-name="Vrstva 2"><g id="Vrstva_1-2" data-name="Vrstva 1"><path class="cls-1" d="M200.2,0V113.39h-3.77V0ZM25,36.36V70.79c0,5.35,3,8,8.9,8V80H0V78.83q7.2-.72,7.21-8V31.38q0-6.16-5.25-7.61V22.16H20.55c1.81,0,3.06,1.14,3.77,3.43a.58.58,0,0,0,.24.16q6-4.18,11.56-4.18Q65,21.57,65,42.88v28c0,4.84,2.44,7.52,7.32,8V80h-34V78.84q8.89,0,8.9-8V44q0-21.29-11.12-21.28A18.53,18.53,0,0,0,24.77,27,39.73,39.73,0,0,1,25,31C25,32.8,25,34.58,25,36.36Zm91.2,14.8c0-12.67-.43-20-1.33-22.13-1.79-4.25-5-6.37-9.8-6.37A18.77,18.77,0,0,0,93.72,26.8c.13,1.25.21,2.54.22,3.91.14,14.91,0,29.89,0,44.81a18.57,18.57,0,0,0,11.13,4c4.84,0,8.09-2.12,9.8-6.37C115.77,70.79,116.2,63.47,116.2,51.16ZM89.49,22.09q2.72,0,3.77,3.33c.12.11.2.16.25.16q6-4.06,11.56-4.07,13.14,0,21.05,7.88T134,51.16q0,13.85-7.84,21.69t-21.1,7.84A19.91,19.91,0,0,1,93.94,77v29.09c0,5.2,3,6.18,8.91,6.18v1.15H67.23v-1.15c5.94,0,8.91-1,8.91-6.2v-75c0-5.2-3-7.82-8.91-7.82V22.09Zm42.91.06h23.16c3.09,0,4.64,3.09,4.64,9.22V70.78c0,5.35,3.7,8,9.88,8V80H132.4V78.83q9.27,0,9.26-8V31.37q0-8-9.26-8ZM143,15.4A8.69,8.69,0,0,1,140.35,9,8.69,8.69,0,0,1,143,2.64a9,9,0,0,1,12.75,0A8.7,8.7,0,0,1,158.37,9a8.7,8.7,0,0,1-2.64,6.38,9,9,0,0,1-12.75,0Z"/><path class="cls-2" d="M526.74,107l-.48-3.93a9.52,9.52,0,0,0,2.43.37A4.7,4.7,0,0,0,531,103a3.85,3.85,0,0,0,1.4-1.32,20.88,20.88,0,0,0,1.3-3.17c.08-.24.2-.58.38-1l-9.52-25.16h4.54L534.3,86.8c.68,1.83,1.28,3.76,1.82,5.79A58.38,58.38,0,0,1,537.87,87l5.35-14.63h4.24L538,97.83a48.32,48.32,0,0,1-2.39,5.67,8.42,8.42,0,0,1-2.6,3.07,6.19,6.19,0,0,1-3.5,1,9,9,0,0,1-2.75-.5M504.27,97.4V62.81h4.25v19.7l10.05-10.19h5.49l-9.56,9.32L525,97.4H519.8l-8.33-12.81-3,2.86v10Zm-9.27,0V72.32h4.25V97.4Zm0-29.76V62.81h4.25v4.83ZM485.65,97.4V62.81h4.25V97.4ZM464.22,84.68c0,3,.41,5.16,1.22,6.49a6.07,6.07,0,0,0,10.23.87c1.35-1.62,2-4,2-7.2s-.64-5.68-1.94-7.23a5.9,5.9,0,0,0-4.7-2.34,6.1,6.1,0,0,0-4.81,2.42C464.89,79.3,464.22,81.62,464.22,84.68Zm0,12.72h-4V62.81h4.25V75.15a8.44,8.44,0,0,1,6.87-3.36,10.53,10.53,0,0,1,4.38.93,9,9,0,0,1,3.4,2.62,12.56,12.56,0,0,1,2.09,4.06,16.78,16.78,0,0,1,.75,5.08q0,6.43-3.18,9.94a10,10,0,0,1-7.64,3.51,8,8,0,0,1-7-3.69Zm-12.92,0V93.67a9.15,9.15,0,0,1-7.94,4.26,10,10,0,0,1-4.13-.85A6.89,6.89,0,0,1,436.42,95a8,8,0,0,1-1.3-3.15,21.9,21.9,0,0,1-.26-4V72.32h4.25V86.2a24.85,24.85,0,0,0,.26,4.47,4.42,4.42,0,0,0,1.7,2.63,5.2,5.2,0,0,0,3.2,1,6.86,6.86,0,0,0,3.57-1,5.5,5.5,0,0,0,2.37-2.66,13.47,13.47,0,0,0,.69-4.89V72.32h4.25V97.4ZM413.43,85c0,3.22.65,5.59,1.95,7.13a6,6,0,0,0,4.73,2.31,6.09,6.09,0,0,0,4.83-2.39c1.35-1.6,2-4.06,2-7.4,0-3.19-.65-5.57-2-7.16a5.91,5.91,0,0,0-4.69-2.37,6.07,6.07,0,0,0-4.78,2.52C414.12,79.35,413.43,81.79,413.43,85Zm-3.86,22V72.32h3.86v3.3a9.58,9.58,0,0,1,3.09-2.87,8.46,8.46,0,0,1,4.17-1,9.88,9.88,0,0,1,5.66,1.65,10.16,10.16,0,0,1,3.71,4.65,17,17,0,0,1,1.25,6.59,16.67,16.67,0,0,1-1.38,6.9,10.4,10.4,0,0,1-4,4.71,10.29,10.29,0,0,1-5.52,1.64,8.05,8.05,0,0,1-3.81-.89,8.62,8.62,0,0,1-2.77-2.26V107ZM387.36,82.47h14a8.4,8.4,0,0,0-1.6-4.74,6.47,6.47,0,0,0-5.25-2.46,6.71,6.71,0,0,0-4.91,2A7.81,7.81,0,0,0,387.36,82.47Zm13.91,6.81,4.4.58a10.61,10.61,0,0,1-3.83,6A13,13,0,0,1,386,94.55q-3.21-3.37-3.21-9.48,0-6.3,3.25-9.79a11,11,0,0,1,8.43-3.49,10.68,10.68,0,0,1,8.19,3.42c2.11,2.28,3.18,5.48,3.18,9.61,0,.25,0,.63,0,1.13H387.12a9.62,9.62,0,0,0,2.33,6.31,6.94,6.94,0,0,0,5.23,2.19,6.48,6.48,0,0,0,4-1.23A8.16,8.16,0,0,0,401.27,89.28ZM369.51,97.4V72.32h3.82v3.84A10.23,10.23,0,0,1,376,72.65a4.6,4.6,0,0,1,2.72-.86,8.39,8.39,0,0,1,4.38,1.35l-1.52,3.92a6.25,6.25,0,0,0-3.09-.87A4,4,0,0,0,376,77a4.53,4.53,0,0,0-1.57,2.32,16.49,16.49,0,0,0-.71,5V97.4ZM338.72,69.23l3.09-6.62h5.6l-5.17,6.62Zm-3.58,13.24h14a8.4,8.4,0,0,0-1.6-4.74,6.47,6.47,0,0,0-5.25-2.46,6.71,6.71,0,0,0-4.91,2A7.81,7.81,0,0,0,335.14,82.47Zm13.92,6.81,4.39.58a10.61,10.61,0,0,1-3.83,6,11.55,11.55,0,0,1-7.16,2.12,11.43,11.43,0,0,1-8.69-3.38q-3.22-3.37-3.22-9.48,0-6.3,3.25-9.79a11,11,0,0,1,8.43-3.49,10.68,10.68,0,0,1,8.19,3.42c2.11,2.28,3.18,5.48,3.18,9.61,0,.25,0,.63,0,1.13H334.9a9.58,9.58,0,0,0,2.34,6.31,6.92,6.92,0,0,0,5.22,2.19,6.46,6.46,0,0,0,4-1.23A8.24,8.24,0,0,0,349.06,89.28ZM309.29,97.4V62.81h4.25v19.7l10-10.19h5.49l-9.56,9.32L330.05,97.4h-5.23l-8.33-12.81-2.95,2.86v10ZM284.9,89.91l4.21-.68a5.87,5.87,0,0,0,2,3.88,6.93,6.93,0,0,0,4.53,1.34A6.64,6.64,0,0,0,300,93.26a3.57,3.57,0,0,0,1.42-2.8,2.59,2.59,0,0,0-1.27-2.26,19.39,19.39,0,0,0-4.35-1.44,39.89,39.89,0,0,1-6.47-2A6.18,6.18,0,0,1,285.63,79a6.55,6.55,0,0,1,.76-3.1,7,7,0,0,1,2.09-2.37,9,9,0,0,1,2.7-1.23,12.75,12.75,0,0,1,3.66-.51,14.11,14.11,0,0,1,5.17.86A7,7,0,0,1,303.3,75a9,9,0,0,1,1.46,3.9l-4.15.58A4.63,4.63,0,0,0,299,76.37a5.86,5.86,0,0,0-3.82-1.1,6.9,6.9,0,0,0-4.17,1,2.81,2.81,0,0,0-1.24,2.26,2.32,2.32,0,0,0,.51,1.49,3.83,3.83,0,0,0,1.63,1.13c.42.16,1.66.52,3.74,1.08a52.21,52.21,0,0,1,6.28,2,6.35,6.35,0,0,1,2.8,2.22,6.1,6.1,0,0,1,1,3.63,7.08,7.08,0,0,1-1.24,4,8.07,8.07,0,0,1-3.58,2.9,13.1,13.1,0,0,1-5.29,1c-3.25,0-5.74-.68-7.45-2A9.48,9.48,0,0,1,284.9,89.91Zm-20.51-7.44h14a8.4,8.4,0,0,0-1.6-4.74,6.47,6.47,0,0,0-5.25-2.46,6.71,6.71,0,0,0-4.91,2A7.81,7.81,0,0,0,264.39,82.47Zm13.91,6.81,4.4.58a10.61,10.61,0,0,1-3.83,6A13,13,0,0,1,263,94.55q-3.21-3.37-3.21-9.48,0-6.3,3.25-9.79a11,11,0,0,1,8.43-3.49,10.68,10.68,0,0,1,8.19,3.42c2.11,2.28,3.18,5.48,3.18,9.61,0,.25,0,.63,0,1.13H264.15a9.62,9.62,0,0,0,2.33,6.31,6.94,6.94,0,0,0,5.23,2.19,6.48,6.48,0,0,0,4-1.23A8.16,8.16,0,0,0,278.3,89.28ZM243.15,58.07l2.64-4h4.83l-5.39,6.62h-4.49l-5.05-6.62h4.83ZM253,85.26l4.59,1.16A15.37,15.37,0,0,1,252.38,95a14.2,14.2,0,0,1-9.13,3,16.36,16.36,0,0,1-9.08-2.28,14.11,14.11,0,0,1-5.32-6.59A23.48,23.48,0,0,1,227,79.84a20.34,20.34,0,0,1,2.06-9.42A14.21,14.21,0,0,1,235,64.31a17.14,17.14,0,0,1,8.37-2.08A14.06,14.06,0,0,1,252,64.87,13.7,13.7,0,0,1,257,72.29l-4.49,1.06A10.72,10.72,0,0,0,249,67.86a9.26,9.26,0,0,0-5.75-1.72,11.17,11.17,0,0,0-6.65,1.91,10.09,10.09,0,0,0-3.75,5.13,20.5,20.5,0,0,0-1.09,6.64,21.23,21.23,0,0,0,1.28,7.7,9.57,9.57,0,0,0,4,4.92,11.17,11.17,0,0,0,5.85,1.62,9.82,9.82,0,0,0,6.49-2.21A11.38,11.38,0,0,0,253,85.26ZM793.9,46.72l.58,3.75a15.8,15.8,0,0,1-3.2.38,7.24,7.24,0,0,1-3.58-.73,4.15,4.15,0,0,1-1.79-1.93,15.48,15.48,0,0,1-.51-5V28.72h-3.14V25.44h3.14v-6.2l4.25-2.55v8.75h4.25v3.28h-4.25V43.41a7,7,0,0,0,.23,2.34,1.7,1.7,0,0,0,.72.83,2.77,2.77,0,0,0,1.45.31A13.68,13.68,0,0,0,793.9,46.72Zm-18.24,3.79V46.79A9.13,9.13,0,0,1,767.73,51a10.17,10.17,0,0,1-4.13-.84,6.89,6.89,0,0,1-2.85-2.13,8.1,8.1,0,0,1-1.31-3.15,21.9,21.9,0,0,1-.26-4V25.44h4.26V39.31a25.21,25.21,0,0,0,.25,4.48,4.42,4.42,0,0,0,1.7,2.63,5.28,5.28,0,0,0,3.2.95,6.94,6.94,0,0,0,3.57-1,5.47,5.47,0,0,0,2.37-2.67,13.41,13.41,0,0,0,.69-4.88V25.44h4.26V50.51Zm-19.1-3.79.58,3.75a15.79,15.79,0,0,1-3.19.38,7.29,7.29,0,0,1-3.59-.73,4.15,4.15,0,0,1-1.79-1.93,15.48,15.48,0,0,1-.51-5V28.72h-3.14V25.44h3.14v-6.2l4.25-2.55v8.75h4.25v3.28h-4.25V43.41a7,7,0,0,0,.23,2.34,1.7,1.7,0,0,0,.72.83,2.77,2.77,0,0,0,1.45.31A13.68,13.68,0,0,0,756.56,46.72Zm-18.48,3.79V25.44h4.25V50.51Zm0-29.76V15.92h4.25v4.83Zm-2.72,26,.58,3.75a15.8,15.8,0,0,1-3.2.38,7.24,7.24,0,0,1-3.58-.73,4.1,4.1,0,0,1-1.79-1.93,15.48,15.48,0,0,1-.51-5V28.72h-3.14V25.44h3.14v-6.2l4.25-2.55v8.75h4.25v3.28h-4.25V43.41a7.4,7.4,0,0,0,.22,2.34,1.78,1.78,0,0,0,.73.83,2.77,2.77,0,0,0,1.45.31A14,14,0,0,0,735.36,46.72ZM701.76,43l4.21-.68a5.85,5.85,0,0,0,2,3.87,6.87,6.87,0,0,0,4.52,1.35,6.65,6.65,0,0,0,4.36-1.2,3.55,3.55,0,0,0,1.42-2.79A2.56,2.56,0,0,0,717,41.32a18.54,18.54,0,0,0-4.34-1.44,39.89,39.89,0,0,1-6.47-2,6.2,6.2,0,0,1-3.66-5.74,6.49,6.49,0,0,1,.76-3.1,7,7,0,0,1,2.09-2.36A8.55,8.55,0,0,1,708,25.42a12.82,12.82,0,0,1,3.67-.51,14.37,14.37,0,0,1,5.17.85,7.11,7.11,0,0,1,3.29,2.3,9.28,9.28,0,0,1,1.46,3.9l-4.16.58a4.6,4.6,0,0,0-1.63-3.06A5.94,5.94,0,0,0,712,28.39a6.94,6.94,0,0,0-4.16,1,2.83,2.83,0,0,0-1.25,2.27,2.37,2.37,0,0,0,.52,1.49,3.76,3.76,0,0,0,1.63,1.12c.42.16,1.66.53,3.74,1.09a55.33,55.33,0,0,1,6.28,2,6.37,6.37,0,0,1,2.8,2.23,6.1,6.1,0,0,1,1,3.63,7,7,0,0,1-1.24,4,8,8,0,0,1-3.57,2.9,13,13,0,0,1-5.29,1c-3.25,0-5.74-.67-7.45-2A9.43,9.43,0,0,1,701.76,43Zm-23.7,7.48V25.44h3.82V29a9,9,0,0,1,8-4.09,10.46,10.46,0,0,1,4.16.81,6.55,6.55,0,0,1,2.85,2.14A8.21,8.21,0,0,1,698.17,31a25.33,25.33,0,0,1,.23,4.13V50.51h-4.25V35.28a11.44,11.44,0,0,0-.49-3.88,4.13,4.13,0,0,0-1.76-2.06,5.68,5.68,0,0,0-2.95-.76,6.83,6.83,0,0,0-4.67,1.72c-1.32,1.15-2,3.33-2,6.53V50.51Zm-9.26,0V25.44h4.26V50.51Zm0-29.76V15.92h4.26v4.83Zm-28.42,1.6,3.1-6.62h5.6l-5.17,6.62Zm-6.66,37.8-.49-3.93a9.65,9.65,0,0,0,2.44.38,4.73,4.73,0,0,0,2.27-.47,4,4,0,0,0,1.4-1.32,21.56,21.56,0,0,0,1.29-3.18c.08-.23.2-.58.38-1l-9.52-25.15H636l5.23,14.48c.68,1.82,1.29,3.76,1.83,5.79.49-1.91,1.07-3.8,1.74-5.65l5.35-14.62h4.24L645,51a51,51,0,0,1-2.39,5.67A8.4,8.4,0,0,1,640,59.68a6.1,6.1,0,0,1-3.5,1A8.61,8.61,0,0,1,633.72,60.15Zm-22.47-9.64V15.92h4.25V35.63l10-10.19H631l-9.57,9.32L632,50.51h-5.23L618.45,37.7l-3,2.87v9.94Zm-6.32-9.18,4.15.58a10.69,10.69,0,0,1-3.49,6.71A10.23,10.23,0,0,1,598.67,51a10.72,10.72,0,0,1-8.25-3.35c-2.09-2.24-3.12-5.45-3.12-9.62A17.52,17.52,0,0,1,588.64,31a9.29,9.29,0,0,1,4.09-4.55,12.17,12.17,0,0,1,6-1.52A10.33,10.33,0,0,1,605.37,27a9.49,9.49,0,0,1,3.33,5.86l-4.11.63a6.85,6.85,0,0,0-2.09-3.8,5.41,5.41,0,0,0-3.63-1.27,6.61,6.61,0,0,0-5.22,2.29q-2,2.31-2,7.27t1.94,7.33a6.32,6.32,0,0,0,5,2.29A5.94,5.94,0,0,0,602.8,46,7.58,7.58,0,0,0,604.93,41.33ZM579.3,50.51V25.44h4.25V50.51Zm0-29.76V15.92h4.25v4.83Zm-22.7,16.8q0,4.92,2,7.17A6.23,6.23,0,0,0,563.47,47a6.32,6.32,0,0,0,4.92-2.25q2-2.25,2-7.05c0-3.06-.69-5.37-2-6.93a6.32,6.32,0,0,0-4.92-2.32,6.15,6.15,0,0,0-4.82,2.29Q556.6,33,556.6,37.55Zm-3.48,15,4.11.58A4,4,0,0,0,558.67,56,7.12,7.12,0,0,0,563,57.13,7.64,7.64,0,0,0,567.55,56a5.76,5.76,0,0,0,2.17-3.3,26.51,26.51,0,0,0,.31-5.43,8.73,8.73,0,0,1-6.94,3.28,9.45,9.45,0,0,1-8-3.72,14.25,14.25,0,0,1-2.84-8.93,16.71,16.71,0,0,1,1.3-6.62,10.36,10.36,0,0,1,3.76-4.68,10.16,10.16,0,0,1,5.8-1.65,9,9,0,0,1,7.31,3.62V25.44h3.91V47.09c0,3.91-.39,6.67-1.19,8.29a8.67,8.67,0,0,1-3.77,3.86A13.1,13.1,0,0,1,563,60.66a12,12,0,0,1-7.23-2A6.78,6.78,0,0,1,553.12,52.59ZM531.26,38q0,4.82,2.1,7.19a7,7,0,0,0,10.59,0q2.1-2.41,2.1-7.32c0-3.09-.71-5.44-2.12-7a7.06,7.06,0,0,0-10.57,0Q531.26,33.2,531.26,38Zm-4.34,0c0-4.63,1.28-8.06,3.87-10.29a11.62,11.62,0,0,1,7.88-2.78,11.28,11.28,0,0,1,8.45,3.38q3.27,3.38,3.27,9.33a16.66,16.66,0,0,1-1.44,7.6,10.37,10.37,0,0,1-4.23,4.3A12.33,12.33,0,0,1,538.67,51a11.27,11.27,0,0,1-8.51-3.36C528,45.43,526.92,42.2,526.92,38Zm-21.11-.43c0,3.28.66,5.67,2,7.17a6.47,6.47,0,0,0,9.83,0q2-2.25,2-7.05,0-4.59-2-6.93a6.33,6.33,0,0,0-4.92-2.32,6.14,6.14,0,0,0-4.82,2.29Q505.81,33,505.81,37.55Zm-3.47,15,4.1.58A4,4,0,0,0,507.88,56a7.15,7.15,0,0,0,4.33,1.17A7.69,7.69,0,0,0,516.77,56a5.8,5.8,0,0,0,2.17-3.3,26.76,26.76,0,0,0,.3-5.43,8.73,8.73,0,0,1-6.94,3.28,9.46,9.46,0,0,1-8-3.72,14.31,14.31,0,0,1-2.83-8.93,16.7,16.7,0,0,1,1.29-6.62,10.36,10.36,0,0,1,3.76-4.68,10.2,10.2,0,0,1,5.8-1.65,9,9,0,0,1,7.31,3.62V25.44h3.91V47.09c0,3.91-.39,6.67-1.19,8.29a8.67,8.67,0,0,1-3.77,3.86,13.1,13.1,0,0,1-6.35,1.42,12,12,0,0,1-7.23-2A6.77,6.77,0,0,1,502.34,52.59ZM493.76,38a31.16,31.16,0,0,1-6.95,1.6,16.26,16.26,0,0,0-3.72.84,3.82,3.82,0,0,0-1.68,1.37,3.61,3.61,0,0,0-.59,2,3.56,3.56,0,0,0,1.28,2.81,5.6,5.6,0,0,0,3.77,1.13,8.74,8.74,0,0,0,4.37-1.07,6.52,6.52,0,0,0,2.81-2.91,10.13,10.13,0,0,0,.69-4.23Zm.34,9.42a15.93,15.93,0,0,1-4.56,2.85,13.14,13.14,0,0,1-4.69.82c-2.75,0-4.87-.66-6.35-2a6.61,6.61,0,0,1-2.23-5.14,6.91,6.91,0,0,1,.84-3.35,7,7,0,0,1,2.2-2.43,10.31,10.31,0,0,1,3.06-1.4,32.25,32.25,0,0,1,3.78-.63,39.63,39.63,0,0,0,7.59-1.46c0-.58,0-.95,0-1.1a4.68,4.68,0,0,0-1.2-3.65,7.15,7.15,0,0,0-4.85-1.43,7.53,7.53,0,0,0-4.44,1,6.4,6.4,0,0,0-2.12,3.73L477,32.64a10.35,10.35,0,0,1,1.87-4.32,8.29,8.29,0,0,1,3.77-2.53,17,17,0,0,1,5.7-.88,15,15,0,0,1,5.23.76,6.81,6.81,0,0,1,3,1.9,6.77,6.77,0,0,1,1.32,2.89,24.2,24.2,0,0,1,.21,3.91V40a60.54,60.54,0,0,0,.27,7.48,9.51,9.51,0,0,0,1,3h-4.45A9.57,9.57,0,0,1,494.1,47.37Zm-39-9.36c0,3.2.67,5.59,2,7.18a6.14,6.14,0,0,0,4.8,2.38,6,6,0,0,0,4.74-2.27q1.95-2.28,1.95-6.94,0-5.11-2-7.53a6.09,6.09,0,0,0-4.89-2.39,5.9,5.9,0,0,0-4.74,2.3Q455.09,33.05,455.09,38Zm13.43,12.5V47.33a7.82,7.82,0,0,1-7,3.71,9.71,9.71,0,0,1-5.5-1.65,10.93,10.93,0,0,1-3.9-4.59,16.09,16.09,0,0,1-1.37-6.8A17.86,17.86,0,0,1,452,31.2a9.84,9.84,0,0,1,3.75-4.67,10,10,0,0,1,5.58-1.62,8.28,8.28,0,0,1,4,1,8.49,8.49,0,0,1,2.88,2.49V15.92h4.25V50.51ZM430.13,35.59h14a8.62,8.62,0,0,0-1.6-4.75,6.5,6.5,0,0,0-5.25-2.45,6.73,6.73,0,0,0-4.91,1.95A7.75,7.75,0,0,0,430.13,35.59ZM444,42.4l4.4.58a10.68,10.68,0,0,1-3.84,6A11.52,11.52,0,0,1,437.45,51a11.4,11.4,0,0,1-8.7-3.38c-2.14-2.24-3.21-5.41-3.21-9.47s1.08-7.48,3.24-9.8a11,11,0,0,1,8.43-3.48,10.67,10.67,0,0,1,8.19,3.41q3.18,3.42,3.18,9.62c0,.25,0,.62,0,1.12H429.89a9.63,9.63,0,0,0,2.33,6.32,7,7,0,0,0,5.23,2.19,6.37,6.37,0,0,0,4-1.24A8.07,8.07,0,0,0,444,42.4Zm-38.63-4.27q0,4.82,1.95,7.13a6,6,0,0,0,4.73,2.31,6.11,6.11,0,0,0,4.84-2.4q2-2.39,2-7.39c0-3.19-.65-5.58-2-7.16a5.89,5.89,0,0,0-4.69-2.38,6.1,6.1,0,0,0-4.78,2.53C406.1,32.46,405.41,34.91,405.41,38.13Zm-3.86,22V25.44h3.86v3.29a9.44,9.44,0,0,1,3.09-2.86,8.46,8.46,0,0,1,4.17-1,9.86,9.86,0,0,1,5.66,1.65A10.13,10.13,0,0,1,422,31.2a17.08,17.08,0,0,1,1.25,6.59,16.72,16.72,0,0,1-1.38,6.91,10.4,10.4,0,0,1-4,4.71A10.27,10.27,0,0,1,412.38,51a7.94,7.94,0,0,1-3.81-.89,8.47,8.47,0,0,1-2.77-2.25V60.13ZM377.48,22.35l3.09-6.62h5.61L381,22.35Zm1.4,28.16V25.44h4.25V50.51Zm-26.89,0V25.44h3.82V29a9,9,0,0,1,8-4.09,10.43,10.43,0,0,1,4.16.81,6.55,6.55,0,0,1,2.85,2.14A8.06,8.06,0,0,1,372.1,31a25.33,25.33,0,0,1,.23,4.13V50.51h-4.25V35.28a11.44,11.44,0,0,0-.49-3.88,4.13,4.13,0,0,0-1.76-2.06,5.63,5.63,0,0,0-2.95-.76,6.83,6.83,0,0,0-4.67,1.72q-2,1.72-2,6.53V50.51ZM329.35,38q0,4.8,2,7.18a6.13,6.13,0,0,0,4.8,2.38,6,6,0,0,0,4.74-2.27q1.95-2.28,1.95-6.94,0-5.11-2-7.53A6.09,6.09,0,0,0,336,28.44a5.91,5.91,0,0,0-4.75,2.3C330,32.28,329.35,34.7,329.35,38Zm13.43,12.5V47.33a7.79,7.79,0,0,1-7,3.71,9.71,9.71,0,0,1-5.5-1.65,10.86,10.86,0,0,1-3.9-4.59A15.94,15.94,0,0,1,325,38a17.86,17.86,0,0,1,1.24-6.8,9.82,9.82,0,0,1,9.34-6.29,8.34,8.34,0,0,1,6.9,3.45V15.92h4.26V50.51ZM304,38q0,4.82,2.1,7.19a7,7,0,0,0,10.58,0q2.1-2.41,2.1-7.32c0-3.09-.7-5.44-2.11-7a7.06,7.06,0,0,0-10.57,0Q304,33.2,304,38Zm-4.35,0q0-6.94,3.88-10.29a11.62,11.62,0,0,1,7.88-2.78,11.26,11.26,0,0,1,8.44,3.38q3.29,3.38,3.28,9.33a16.52,16.52,0,0,1-1.45,7.6,10.29,10.29,0,0,1-4.22,4.3A12.33,12.33,0,0,1,311.37,51a11.25,11.25,0,0,1-8.51-3.36Q299.61,44.31,299.61,38ZM286.55,50.51V25.44h3.81v3.84a10.41,10.41,0,0,1,2.71-3.52,4.72,4.72,0,0,1,2.73-.85,8.46,8.46,0,0,1,4.37,1.34l-1.51,3.92a6.25,6.25,0,0,0-3.09-.87,4,4,0,0,0-2.49.84,4.49,4.49,0,0,0-1.57,2.32,16.27,16.27,0,0,0-.71,4.95v13.1ZM268.3,22.35l3.1-6.62H277l-5.17,6.62ZM277.24,38a31.16,31.16,0,0,1-6.95,1.6,16.26,16.26,0,0,0-3.72.84,3.82,3.82,0,0,0-1.68,1.37,3.62,3.62,0,0,0-.6,2,3.57,3.57,0,0,0,1.29,2.81,5.59,5.59,0,0,0,3.77,1.13,8.74,8.74,0,0,0,4.37-1.07,6.52,6.52,0,0,0,2.81-2.91,10.13,10.13,0,0,0,.69-4.23Zm.34,9.42A15.93,15.93,0,0,1,273,50.22a13.14,13.14,0,0,1-4.69.82c-2.75,0-4.87-.66-6.35-2a6.58,6.58,0,0,1-2.23-5.14,6.94,6.94,0,0,1,3-5.78,10.31,10.31,0,0,1,3.06-1.4,32.25,32.25,0,0,1,3.78-.63,39.63,39.63,0,0,0,7.59-1.46c0-.58,0-.95,0-1.1A4.65,4.65,0,0,0,276,29.87a7.1,7.1,0,0,0-4.84-1.43,7.53,7.53,0,0,0-4.44,1,6.4,6.4,0,0,0-2.12,3.73l-4.15-.58a10.35,10.35,0,0,1,1.87-4.32,8.31,8.31,0,0,1,3.76-2.53,17.12,17.12,0,0,1,5.71-.88,15,15,0,0,1,5.23.76,6.71,6.71,0,0,1,2.95,1.9,6.66,6.66,0,0,1,1.33,2.89,24.2,24.2,0,0,1,.21,3.91V40a60.54,60.54,0,0,0,.27,7.48,9.51,9.51,0,0,0,1,3H278.4A9.57,9.57,0,0,1,277.58,47.37Zm-49.31,3.14V15.92H233l18.14,27.15V15.92h4.4V50.51h-4.7L232.67,23.36V50.51Z"/></g></g></svg>