<svg xmlns="http://www.w3.org/2000/svg" viewBox="0 0 198.248 65.375"><path d="M63.511 11.254c-.858 2.295-.958 3.532-.838 4.69h-1.935c1.097-1.996 1.755-3.452 3.052-6.406l3.672-8.54h.08l6.445 14.945h-3.452l-2.015-4.689h-5.01zm.14-.359h4.729l-2.375-5.527-1.855 4.33c-.18.419-.36.818-.499 1.197zm11.453 4.47l.4-1.437c.797 1.078 2.234 1.975 3.91 1.975 1.497 0 2.334-.718 2.334-1.756 0-1.197-1.177-1.675-2.434-2.155l-.838-.319c-1.177-.458-3.212-1.257-3.212-3.372 0-1.796 1.456-3.332 4.19-3.332 1.576 0 3.013.499 3.531.758l-.338 1.257c-.7-.798-1.936-1.736-3.493-1.736-1.356 0-2.094.718-2.094 1.617 0 1.197 1.257 1.655 2.454 2.114l.818.3c1.137.459 3.212 1.237 3.212 3.452 0 1.855-1.476 3.452-4.43 3.452-1.576 0-3.391-.46-4.01-.818zm10.156-4.73c0-3.412 2.494-5.666 5.806-5.666 3.253 0 5.647 2.115 5.647 5.547 0 3.412-2.514 5.667-5.806 5.667-3.253 0-5.647-2.116-5.647-5.547zm8.34.02c0-3.232-.957-5.407-2.653-5.407-1.756 0-2.574 2.095-2.574 5.288 0 3.213.958 5.367 2.633 5.367 1.756 0 2.595-2.095 2.595-5.247zm5.029.08c0-3.532 2.534-5.766 5.607-5.766 1.915 0 3.252.778 4.11 1.756l-1.017.898c-.819-1.357-1.597-2.355-2.834-2.355-1.676 0-2.714 1.776-2.714 4.749 0 3.372 1.317 4.989 3.273 4.989 1.077 0 2.235-.52 3.172-1.796l.24.14c-1.137 1.735-2.634 2.833-4.71 2.833-2.873 0-5.127-2.096-5.127-5.448zm11.912-5.128l2.853-.698h.08v11.034h-2.933V5.607zm15.703 9.758v.12c-.28.179-1.137.658-2.235.658-1.577 0-1.955-.978-2.055-1.517-.918.938-2.175 1.517-3.452 1.517-1.736 0-2.814-1.097-2.814-2.554 0-1.816 1.676-3.073 4.39-3.353.759-.059 1.277-.099 1.856-.159V8.979c0-1.656-.26-3.212-2.394-3.212-1.018 0-1.976.34-2.954 1.117l-.18-.22c1.078-.997 2.215-1.695 4.25-1.695 2.814 0 4.231 1.217 4.231 3.81v5.11c0 .957 0 1.516.958 1.516.16 0 .28-.02.4-.04zm-4.31-1.118v-3.87c-2.155.259-3.392 1.156-3.392 2.833 0 1.356.718 1.975 1.556 1.975.579 0 1.237-.28 1.836-.938zm5.567-3.512c0-3.532 2.534-5.766 5.607-5.766 1.915 0 3.253.778 4.11 1.756l-1.017.898c-.818-1.357-1.596-2.355-2.833-2.355-1.677 0-2.714 1.776-2.714 4.749 0 3.372 1.317 4.989 3.272 4.989 1.077 0 2.235-.52 3.173-1.796l.24.14c-1.138 1.735-2.634 2.833-4.71 2.833-2.873 0-5.128-2.096-5.128-5.448zm14.307-.857v.079c0 3.452 1.476 5.049 3.571 5.049 1.177 0 2.434-.52 3.432-1.756l.24.14c-1.337 1.995-3.113 2.793-5.029 2.793-3.013 0-5.267-2.076-5.267-5.388 0-3.572 2.434-5.826 5.746-5.826 3.332 0 4.69 2.274 4.57 4.909h-7.263zm0-.32h4.649c.26-2.594-.719-4.29-2.115-4.29-1.517 0-2.435 1.875-2.534 4.29zM61.436 37.806l.4-1.437c.797 1.078 2.234 1.975 3.91 1.975 1.497 0 2.334-.718 2.334-1.755 0-1.197-1.177-1.676-2.434-2.156l-.838-.319c-1.177-.458-3.212-1.257-3.212-3.372 0-1.796 1.456-3.332 4.19-3.332 1.576 0 3.013.499 3.531.758l-.338 1.257c-.7-.798-1.936-1.736-3.493-1.736-1.356 0-2.094.718-2.094 1.617 0 1.197 1.257 1.656 2.454 2.114l.818.3c1.137.459 3.212 1.237 3.212 3.452 0 1.855-1.476 3.452-4.43 3.452-1.576 0-3.391-.459-4.01-.818zm21.61-5.009c0 3.432-2.395 5.827-5.348 5.827-1.078 0-1.955-.34-2.654-.898v5.208H72.11V28.048l2.853-.698h.08v1.716c.918-.998 2.015-1.656 3.412-1.656 2.574 0 4.59 2.215 4.59 5.387zm-3.113.22c0-3.512-.958-4.769-2.455-4.769-.818 0-1.636.379-2.434 1.317v6.664c.36 1.218 1.177 2.055 2.274 2.055 1.697 0 2.615-1.955 2.615-5.267zm5.028.06c0-3.412 2.494-5.667 5.806-5.667 3.252 0 5.647 2.115 5.647 5.547 0 3.412-2.514 5.667-5.806 5.667-3.253 0-5.647-2.115-5.647-5.547zm8.34.02c0-3.233-.957-5.408-2.653-5.408-1.757 0-2.574 2.096-2.574 5.288 0 3.213.957 5.367 2.633 5.367 1.756 0 2.594-2.095 2.594-5.247zm5.587-10.037l2.873-.838h.08v16.162h-2.953V23.06zm8.48 9.259v.079c0 3.452 1.476 5.049 3.572 5.049 1.177 0 2.434-.519 3.431-1.756l.24.14c-1.337 1.995-3.112 2.793-5.028 2.793-3.013 0-5.268-2.075-5.268-5.388 0-3.571 2.434-5.826 5.746-5.826 3.333 0 4.69 2.275 4.57 4.909h-7.263zm0-.32h4.65c.259-2.594-.72-4.29-2.116-4.29-1.516 0-2.435 1.875-2.534 4.29zm18.956 3.791c-1.137 1.736-2.634 2.834-4.71 2.834-2.873 0-5.127-2.095-5.127-5.448 0-3.531 2.534-5.766 5.607-5.766 1.915 0 3.252.778 4.11 1.756l-1.017.898c-.819-1.357-1.597-2.355-2.834-2.355-1.676 0-2.714 1.776-2.714 4.749 0 3.372 1.317 4.989 3.273 4.989 1.077 0 2.235-.519 3.172-1.796l.24.14zm4.469-3.471v.079c0 3.452 1.476 5.049 3.572 5.049 1.177 0 2.434-.519 3.431-1.756l.24.14c-1.337 1.995-3.113 2.793-5.028 2.793-3.013 0-5.268-2.075-5.268-5.388 0-3.571 2.434-5.826 5.746-5.826 3.333 0 4.69 2.275 4.57 4.909h-7.263zm0-.32h4.65c.259-2.594-.72-4.29-2.116-4.29-1.516 0-2.435 1.875-2.534 4.29zm19.694-.778v7.163h-2.933v-7.442c0-.739-.02-2.615-1.876-2.615-.778 0-1.496.32-2.315 1.138v8.92h-2.933V28.047l2.854-.698h.08v1.736c.938-.978 1.975-1.676 3.611-1.676 2.235 0 3.512 1.197 3.512 3.811zm2.274 6.585l.4-1.437c.797 1.078 2.234 1.975 3.91 1.975 1.497 0 2.334-.718 2.334-1.755 0-1.197-1.177-1.676-2.434-2.156l-.838-.319c-1.177-.458-3.212-1.257-3.212-3.372 0-1.796 1.456-3.332 4.19-3.332 1.576 0 3.013.499 3.531.758l-.338 1.257c-.7-.798-1.936-1.736-3.493-1.736-1.356 0-2.094.718-2.094 1.617 0 1.197 1.257 1.656 2.454 2.114l.818.3c1.137.459 3.212 1.237 3.212 3.452 0 1.855-1.476 3.452-4.429 3.452-1.576 0-3.392-.459-4.011-.818zm13.568-15.584h.08v16.162h-2.952V23.06l2.872-.838zm6.905 5.467a32.165 32.165 0 00-4.11 3.053l4.11 4.35v3.95h-.1l-6.325-6.783 1.776-1.557c1.556-1.357 2.354-2.115 3.053-3.053h1.596v.04zm4.389 4.63v.079c0 3.452 1.476 5.049 3.572 5.049 1.177 0 2.434-.519 3.431-1.756l.24.14c-1.337 1.995-3.113 2.793-5.028 2.793-3.013 0-5.268-2.075-5.268-5.388 0-3.571 2.434-5.826 5.746-5.826 3.333 0 4.69 2.275 4.57 4.909h-7.263zm0-.32h4.65c.259-2.594-.72-4.29-2.116-4.29-1.517 0-2.435 1.875-2.534 4.29zM61.556 55.518c0-3.412 2.494-5.667 5.806-5.667 3.252 0 5.647 2.115 5.647 5.547 0 3.412-2.514 5.667-5.806 5.667-3.253 0-5.647-2.115-5.647-5.547zm8.34.02c0-3.233-.957-5.408-2.653-5.408-1.757 0-2.574 2.096-2.574 5.288 0 3.213.957 5.367 2.633 5.367 1.756 0 2.594-2.095 2.594-5.247zm13.608 5.507l-.539-1.676c-.937 1.038-2.035 1.696-3.451 1.696-2.574 0-4.59-2.215-4.59-5.388 0-3.431 2.394-5.826 5.348-5.826 1.078 0 1.955.32 2.653.878v-5.228l2.854-.838h.08V58.93l.439 1.377-2.794.738zm-.579-2.155v-6.664c-.358-1.198-1.177-2.056-2.274-2.056-1.696 0-2.614 1.976-2.614 5.288 0 3.512.978 4.73 2.514 4.73.819 0 1.577-.36 2.374-1.298zm16.841-3.652c0 3.432-2.394 5.827-5.347 5.827-1.078 0-1.955-.34-2.654-.898v5.208h-2.933V50.489l2.853-.698h.08v1.716c.918-.998 2.015-1.656 3.412-1.656 2.574 0 4.59 2.215 4.59 5.387zm-3.113.22c0-3.512-.957-4.769-2.454-4.769-.818 0-1.636.379-2.434 1.317v6.664c.36 1.218 1.177 2.055 2.274 2.055 1.697 0 2.614-1.955 2.614-5.267zm5.029.06c0-3.412 2.494-5.667 5.806-5.667 3.252 0 5.647 2.115 5.647 5.547 0 3.412-2.514 5.667-5.806 5.667-3.253 0-5.647-2.115-5.647-5.547zm8.34.02c0-3.233-.958-5.408-2.653-5.408-1.757 0-2.574 2.096-2.574 5.288 0 3.213.957 5.367 2.633 5.367 1.756 0 2.594-2.095 2.594-5.247zm14.028-5.448c-.919 1.716-1.597 3.253-2.914 6.186l-2.175 4.948h-.1l-4.928-11.134h3.193l3.172 7.224.499-1.158c1.317-2.953 1.716-4.769 1.775-6.066h1.478zm3.65 4.67v.08c0 3.451 1.477 5.048 3.572 5.048 1.177 0 2.434-.519 3.432-1.756l.24.14c-1.337 1.995-3.113 2.793-5.029 2.793-3.013 0-5.267-2.075-5.267-5.388 0-3.571 2.434-5.826 5.746-5.826 3.332 0 4.69 2.275 4.57 4.909H127.7zm0-.32h4.65c.26-2.594-.719-4.29-2.115-4.29-1.517 0-2.435 1.876-2.534 4.29zm17.7 6.605l-.54-1.676c-.937 1.038-2.035 1.696-3.451 1.696-2.574 0-4.59-2.215-4.59-5.388 0-3.431 2.394-5.826 5.348-5.826 1.078 0 1.955.32 2.653.878v-5.228l2.854-.838h.08V58.93l.439 1.377-2.794.738zm-.58-2.155v-6.664c-.358-1.198-1.177-2.056-2.274-2.056-1.696 0-2.614 1.976-2.614 5.288 0 3.512.978 4.73 2.514 4.73.819 0 1.577-.36 2.374-1.298zm15.963-5.228v7.163h-2.933v-7.442c0-.739-.02-2.614-1.876-2.614-.778 0-1.496.319-2.314 1.137v8.92h-2.933V50.488l2.853-.698h.08v1.736c.938-.978 1.976-1.676 3.611-1.676 2.235 0 3.512 1.197 3.512 3.811zm2.394 1.856c0-3.412 2.494-5.667 5.807-5.667 3.252 0 5.647 2.115 5.647 5.547 0 3.412-2.515 5.667-5.807 5.667-3.253 0-5.647-2.115-5.647-5.547zm8.34.02c0-3.233-.957-5.408-2.653-5.408-1.756 0-2.574 2.096-2.574 5.288 0 3.213.958 5.367 2.634 5.367 1.755 0 2.594-2.095 2.594-5.247zm4.889 4.709l.4-1.437c.797 1.078 2.234 1.975 3.91 1.975 1.497 0 2.334-.718 2.334-1.755 0-1.197-1.177-1.676-2.434-2.156l-.838-.318c-1.177-.46-3.212-1.258-3.212-3.373 0-1.796 1.456-3.332 4.19-3.332 1.576 0 3.013.499 3.531.758l-.338 1.257c-.7-.798-1.936-1.736-3.493-1.736-1.356 0-2.094.719-2.094 1.617 0 1.197 1.257 1.656 2.454 2.114l.818.3c1.137.459 3.212 1.237 3.212 3.452 0 1.855-1.476 3.452-4.429 3.452-1.577 0-3.392-.459-4.011-.818zm17.24-.34c-.958.68-1.916 1.158-3.233 1.158-2.594 0-2.873-1.816-2.873-2.834V50.53h-1.317v-.339l1.277-.1 2.893-3.691h.08v3.691h3.133l-.26.44h-2.873v7.801c0 .5 0 1.836 1.397 1.836.44 0 .978-.14 1.616-.499l.16.24zm1.656-9.418l2.854-.698h.079v11.034h-2.933V50.49zM110.906 2.208c.262.46.75.744 1.28.744h.011A1.474 1.474 0 00113.472.74l-.002-.005A1.474 1.474 0 00112.195 0h-.006c-.531 0-1.021.286-1.283.748l-.002.005a1.474 1.474 0 00.002 1.455zm84.576 44.882c.262.46.751.744 1.28.744h.012a1.474 1.474 0 001.275-2.212l-.002-.005a1.474 1.474 0 00-1.276-.735h-.005c-.531 0-1.021.286-1.283.748l-.003.005a1.474 1.474 0 00.002 1.455zm-73.528-20.798l-3.313-3.77.12-.1 3.253 1.795 3.272-1.796.12.1-3.332 3.771h-.12zm57.844 0l-.14-.1 1.237-3.77h2.754l-3.851 3.87zm-49.603 22.441l-3.313-3.77.12-.1 3.253 1.795 3.252-1.795.12.1-3.312 3.77h-.12z"/></svg>