<svg xmlns="http://www.w3.org/2000/svg" width="200" height="45" viewBox="0 0 200 45">
    <g fill="none" fill-rule="evenodd">
        <path d="M18.2 5.7h181.711v30.336H18.201z"/>
        <path fill="#00A3AE" d="M33.79 6.474v24.661L19.98 6.475H18.2v28.91h1.939V10.52L34.02 35.384h1.733V6.474H33.79zm13.51 7.033c-4.155 0-6.682 2.857-6.682 6.978v.537h1.844v-.455c0-3.227 1.764-5.25 4.838-5.25 3.29 0 5.03 2.21 5.03 5.45v4.616c-1.102-1.43-2.893-2.388-5.355-2.388-4.482 0-7 2.794-7 6.422 0 3.603 2.47 6.423 6.873 6.423 2.694 0 4.578-1.14 5.64-2.788v2.332h1.701V20.685c0-4.151-2.535-7.178-6.89-7.178h.001zm-.159 20.684c-3.432 0-5.291-2.105-5.291-4.774s1.86-4.79 5.291-4.79c3.456 0 5.252 2.121 5.252 4.79s-1.796 4.774-5.252 4.774zM70.46 5.701v10.497c-1.038-1.686-2.814-2.716-5.406-2.716-4.144 0-6.74 3.086-6.74 7.457v7.444c0 4.379 2.596 7.457 6.74 7.457 2.682 0 4.518-1.19 5.516-3.102v2.646h1.734V5.701H70.46zm0 22.855c0 3.221-1.856 5.474-5.15 5.474-3.295 0-5.152-2.265-5.152-5.728V21.02c0-3.461 1.857-5.728 5.151-5.728 3.295 0 5.15 2.267 5.15 5.474v7.79zm13.042-15.049c-4.155 0-6.682 2.857-6.682 6.978v.537h1.844v-.455c0-3.227 1.763-5.25 4.838-5.25 3.29 0 5.03 2.21 5.03 5.45v4.616c-1.102-1.43-2.893-2.388-5.355-2.388-4.482 0-7 2.794-7 6.422 0 3.603 2.47 6.423 6.872 6.423 2.695 0 4.579-1.14 5.641-2.788v2.332h1.7V20.685c0-4.151-2.534-7.178-6.888-7.178zm-.16 20.684c-3.431 0-5.29-2.105-5.29-4.774s1.859-4.79 5.29-4.79c3.457 0 5.253 2.121 5.253 4.79s-1.796 4.774-5.252 4.774zm23.168-13.52h1.844v-.426c0-3.915-2.612-6.763-6.94-6.763-4.326 0-6.922 3.037-6.922 7.457v7.444c0 4.313 2.581 7.457 6.923 7.457 4.392 0 7.019-2.89 7.019-6.836v-.433h-1.845v.392c0 2.962-1.846 5.067-5.174 5.067-3.277 0-5.079-2.357-5.079-5.728V21.02c0-3.461 1.816-5.728 5.079-5.728s5.095 2.089 5.095 5.035v.343zm18.022 7.868v.4c0 2.976-1.872 5.091-5.31 5.091-3.44 0-5.336-2.357-5.336-5.728v-3.355h12.378v-4.015c0-4.408-2.62-7.45-7.1-7.45-4.462 0-7.122 3.037-7.122 7.457v7.444c0 4.313 2.676 7.457 7.18 7.457 4.502 0 7.154-2.9 7.154-6.86v-.441h-1.844zm-5.367-13.247c3.415 0 5.255 2.27 5.255 5.721v2.189h-10.534V21.02c0-3.461 1.88-5.728 5.279-5.728zm29.952-9.47c-6.133 0-9.83 4.453-9.83 9.894V26.12c0 5.484 3.675 9.916 9.83 9.916s9.829-4.432 9.829-9.916V15.716c0-5.441-3.697-9.893-9.83-9.893zm0 4.692c3.196 0 4.943 2.318 4.943 5.202v10.426c0 2.888-1.725 5.203-4.943 5.203-3.218 0-4.944-2.315-4.944-5.203V15.716c0-2.884 1.748-5.202 4.944-5.202zm26.425 4.99h4.801v-.846c0-5.107-3.85-8.835-8.952-8.835-5.055 0-8.644 3.404-8.644 8.196 0 4.184 2.236 6.543 6.598 8.28l2.606 1.012c2.195.858 4.125 1.915 4.125 4.315 0 2.418-2.01 3.719-4.503 3.719-2.674 0-4.6-1.896-4.6-4.76v-.58h-4.886v.622c0 6.128 4.596 9.409 9.486 9.409 4.749 0 9.389-3.065 9.389-8.64 0-4.556-2.785-7.051-6.833-8.618l-2.596-.981c-2.27-.867-3.9-1.959-3.9-4.053 0-2.108 1.798-3.23 3.758-3.23 2.109 0 4.151 1.544 4.151 4.388v.602zm24.37-4.361V6.474H184.44v28.91h4.885V22.9h7.833v-4.691h-7.833v-7.065h10.587zM0 45h2V0H0z"/>
    </g>
</svg>
