<svg width="219" height="39" viewBox="0 0 219 39" fill="none" xmlns="http://www.w3.org/2000/svg">
<path d="M28.7102 13.5608C28.7102 12.5485 28.9214 11.5924 29.3437 10.6925C29.7942 9.76454 30.4276 8.96311 31.2441 8.28821C32.0605 7.5852 33.0459 7.02279 34.2002 6.60098C35.3827 6.17917 36.72 5.96826 38.2121 5.96826C39.648 5.96826 40.929 6.17917 42.0551 6.60098C43.2094 7.02279 44.1807 7.61332 44.9691 8.37257C45.7855 9.13183 46.4049 10.0317 46.8272 11.0722C47.2777 12.0845 47.5029 13.1953 47.5029 14.4044L41.5906 14.8263C41.5906 13.7577 41.295 12.9281 40.7038 12.3376C40.1125 11.747 39.282 11.4518 38.2121 11.4518C37.2549 11.4518 36.4807 11.7189 35.8895 12.2532C35.3264 12.7594 35.0448 13.3359 35.0448 13.9826C35.0448 14.6294 35.3686 15.1215 36.0162 15.459C36.6637 15.7964 37.4661 16.1198 38.4233 16.4291C39.4087 16.7103 40.4644 17.0197 41.5906 17.3571C42.7168 17.6946 43.7584 18.1726 44.7157 18.7913C45.701 19.4099 46.5175 20.2254 47.165 21.2377C47.8126 22.2501 48.1363 23.5577 48.1363 25.1606C48.1363 26.2292 47.9111 27.2415 47.4607 28.1976C47.0384 29.1256 46.4049 29.9411 45.5603 30.6441C44.7157 31.3471 43.674 31.9095 42.4352 32.3313C41.1964 32.7531 39.7888 32.964 38.2121 32.964C36.6918 32.964 35.3264 32.7531 34.1158 32.3313C32.9052 31.9095 31.8775 31.319 31.0329 30.5597C30.2165 29.7723 29.583 28.8584 29.1326 27.818C28.7102 26.7494 28.4991 25.5824 28.4991 24.3169L34.4114 23.8951C34.4114 26.2854 35.6783 27.4805 38.2121 27.4805C39.3946 27.4805 40.2814 27.2134 40.8727 26.6791C41.4921 26.1167 41.8018 25.4699 41.8018 24.7388C41.8018 24.0639 41.478 23.5436 40.8304 23.1781C40.1829 22.8125 39.3665 22.475 38.3811 22.1657C37.4238 21.8564 36.3822 21.533 35.256 21.1956C34.1298 20.8581 33.0741 20.3941 32.0887 19.8036C31.1315 19.1849 30.3291 18.3835 29.6816 17.3993C29.034 16.4151 28.7102 15.1356 28.7102 13.5608Z" fill="#2548FF"/>
<path d="M14.8393 20.0634L12.6692 13.5608L9.71305 22.4188L21.6433 22.4191L25.3384 32.7531H19.0038L17.3146 27.6914H8.02382L8.0235 27.6924H1.80954L9.5019 6.17917H15.8365L20.801 20.0634H14.8393Z" fill="#2548FF"/>
<path d="M0.949646 30.0973H7.22094L6.3346 32.7531H0L0.949646 30.0973Z" fill="#2548FF"/>
<path d="M59.7762 32.7531H64.4215L69.2781 17.1462L74.1346 32.7531H78.78L87.2261 6.17917H81.3138L76.2461 22.6297L71.1785 6.17917H67.3777L62.31 22.6297L57.2423 6.17917H51.33L59.7762 32.7531Z" fill="#2548FF"/>
<path fill-rule="evenodd" clip-rule="evenodd" d="M95.6854 27.6914L93.9962 32.7531H87.6616L97.1635 6.17917H103.498L113 32.7531H106.665L104.976 27.6914H95.6854ZM103.287 22.4188L100.331 13.5608L97.3747 22.4188H103.287Z" fill="#2548FF"/>
<path d="M138.857 9.14258H135.74L135.02 11H134L136.883 3.44141H137.721L140.598 11H139.578L138.857 9.14258ZM136.039 8.29883H138.559L137.299 5L136.039 8.29883ZM141.137 5.42188C141.137 5.16406 141.197 4.91406 141.318 4.67188C141.439 4.42578 141.609 4.20703 141.828 4.01562C142.047 3.82422 142.307 3.67187 142.607 3.55859C142.908 3.44141 143.238 3.38281 143.598 3.38281C143.926 3.38281 144.23 3.44336 144.512 3.56445C144.797 3.68164 145.045 3.8418 145.256 4.04492C145.471 4.24805 145.637 4.49023 145.754 4.77148C145.875 5.05273 145.936 5.34961 145.936 5.66211H144.98C144.98 5.23633 144.848 4.89062 144.582 4.625C144.316 4.35547 143.988 4.2207 143.598 4.2207C143.375 4.2207 143.17 4.25586 142.982 4.32617C142.799 4.39258 142.641 4.48242 142.508 4.5957C142.379 4.70508 142.277 4.83203 142.203 4.97656C142.133 5.12109 142.098 5.26953 142.098 5.42188C142.098 5.73438 142.197 5.97656 142.396 6.14844C142.596 6.32031 142.844 6.46484 143.141 6.58203C143.438 6.69531 143.76 6.80273 144.107 6.9043C144.455 7.00195 144.777 7.13281 145.074 7.29688C145.371 7.46094 145.619 7.67773 145.818 7.94727C146.018 8.21289 146.117 8.57031 146.117 9.01953C146.117 9.29297 146.059 9.55273 145.941 9.79883C145.828 10.041 145.662 10.2559 145.443 10.4434C145.229 10.6309 144.965 10.7812 144.652 10.8945C144.34 11.0039 143.988 11.0586 143.598 11.0586C143.207 11.0586 142.855 11.0039 142.543 10.8945C142.23 10.7812 141.965 10.623 141.746 10.4199C141.531 10.2129 141.365 9.9707 141.248 9.69336C141.135 9.41211 141.078 9.10742 141.078 8.7793H142.039C142.039 9.23633 142.17 9.5918 142.432 9.8457C142.697 10.0957 143.086 10.2207 143.598 10.2207C144.109 10.2207 144.496 10.1055 144.758 9.875C145.023 9.64062 145.156 9.35547 145.156 9.01953C145.156 8.70703 145.057 8.46484 144.857 8.29297C144.658 8.12109 144.41 7.97852 144.113 7.86523C143.816 7.74805 143.494 7.64062 143.146 7.54297C142.799 7.44141 142.477 7.30859 142.18 7.14453C141.887 6.98047 141.639 6.76562 141.436 6.5C141.236 6.23047 141.137 5.87109 141.137 5.42188ZM147.922 7.2207C147.922 7.6543 147.992 8.05469 148.133 8.42188C148.277 8.78906 148.469 9.10742 148.707 9.37695C148.949 9.64258 149.227 9.84961 149.539 9.99805C149.852 10.1465 150.172 10.2207 150.5 10.2207C150.828 10.2207 151.148 10.1465 151.461 9.99805C151.773 9.84961 152.049 9.64258 152.287 9.37695C152.525 9.10742 152.717 8.78906 152.861 8.42188C153.006 8.05078 153.078 7.65039 153.078 7.2207C153.078 6.78711 153.006 6.38672 152.861 6.01953C152.717 5.65234 152.525 5.33594 152.287 5.07031C152.049 4.80078 151.773 4.5918 151.461 4.44336C151.148 4.29492 150.828 4.2207 150.5 4.2207C150.172 4.2207 149.852 4.29492 149.539 4.44336C149.227 4.5918 148.949 4.80078 148.707 5.07031C148.469 5.33594 148.277 5.65234 148.133 6.01953C147.992 6.38672 147.922 6.78711 147.922 7.2207ZM154.039 7.2207C154.039 7.76367 153.941 8.26758 153.746 8.73242C153.551 9.19727 153.291 9.60352 152.967 9.95117C152.643 10.2988 152.266 10.5703 151.836 10.7656C151.41 10.9609 150.965 11.0586 150.5 11.0586C150.035 11.0586 149.588 10.9609 149.158 10.7656C148.732 10.5703 148.357 10.2988 148.033 9.95117C147.709 9.60352 147.449 9.19727 147.254 8.73242C147.059 8.26758 146.961 7.76367 146.961 7.2207C146.961 6.68555 147.059 6.18359 147.254 5.71484C147.449 5.24609 147.709 4.83789 148.033 4.49023C148.357 4.14258 148.732 3.87109 149.158 3.67578C149.588 3.48047 150.035 3.38281 150.5 3.38281C150.965 3.38281 151.41 3.48047 151.836 3.67578C152.266 3.87109 152.643 4.14258 152.967 4.49023C153.291 4.83789 153.551 5.24609 153.746 5.71484C153.941 6.18359 154.039 6.68555 154.039 7.2207ZM158.422 4.2207C158.094 4.2207 157.773 4.29492 157.461 4.44336C157.148 4.5918 156.871 4.80078 156.629 5.07031C156.391 5.33594 156.199 5.65234 156.055 6.01953C155.914 6.38672 155.844 6.78711 155.844 7.2207C155.844 7.6543 155.914 8.05469 156.055 8.42188C156.199 8.78906 156.391 9.10742 156.629 9.37695C156.871 9.64258 157.148 9.84961 157.461 9.99805C157.773 10.1465 158.094 10.2207 158.422 10.2207C158.719 10.2207 158.99 10.1758 159.236 10.0859C159.486 9.99219 159.705 9.86719 159.893 9.71094C160.08 9.55469 160.234 9.37109 160.355 9.16016C160.48 8.94531 160.576 8.71875 160.643 8.48047H161.662C161.557 8.83984 161.408 9.17578 161.217 9.48828C161.025 9.80078 160.791 10.0762 160.514 10.3145C160.24 10.5488 159.926 10.7324 159.57 10.8652C159.219 10.9941 158.836 11.0586 158.422 11.0586C157.957 11.0586 157.51 10.9609 157.08 10.7656C156.654 10.5703 156.279 10.2988 155.955 9.95117C155.631 9.60352 155.371 9.19727 155.176 8.73242C154.98 8.26758 154.883 7.76367 154.883 7.2207C154.883 6.68555 154.98 6.18359 155.176 5.71484C155.371 5.24609 155.631 4.83789 155.955 4.49023C156.279 4.14258 156.654 3.87109 157.08 3.67578C157.51 3.48047 157.957 3.38281 158.422 3.38281C158.828 3.38281 159.201 3.44922 159.541 3.58203C159.881 3.71094 160.188 3.89453 160.461 4.13281C160.734 4.36719 160.967 4.64062 161.158 4.95312C161.35 5.26562 161.498 5.60156 161.604 5.96094H160.578C160.516 5.72266 160.422 5.49805 160.297 5.28711C160.176 5.07227 160.021 4.88672 159.834 4.73047C159.65 4.57422 159.441 4.45117 159.207 4.36133C158.973 4.26758 158.711 4.2207 158.422 4.2207ZM163.941 11H162.98V3.44141H163.941V11ZM169.76 9.14258H166.643L165.922 11H164.902L167.785 3.44141H168.623L171.5 11H170.48L169.76 9.14258ZM166.941 8.29883H169.461L168.201 5L166.941 8.29883ZM175.215 4.2207C174.887 4.2207 174.566 4.29492 174.254 4.44336C173.941 4.5918 173.664 4.80078 173.422 5.07031C173.184 5.33594 172.992 5.65234 172.848 6.01953C172.707 6.38672 172.637 6.78711 172.637 7.2207C172.637 7.6543 172.707 8.05469 172.848 8.42188C172.992 8.78906 173.184 9.10742 173.422 9.37695C173.664 9.64258 173.941 9.84961 174.254 9.99805C174.566 10.1465 174.887 10.2207 175.215 10.2207C175.512 10.2207 175.783 10.1758 176.029 10.0859C176.279 9.99219 176.498 9.86719 176.686 9.71094C176.873 9.55469 177.027 9.37109 177.148 9.16016C177.273 8.94531 177.369 8.71875 177.436 8.48047H178.455C178.35 8.83984 178.201 9.17578 178.01 9.48828C177.818 9.80078 177.584 10.0762 177.307 10.3145C177.033 10.5488 176.719 10.7324 176.363 10.8652C176.012 10.9941 175.629 11.0586 175.215 11.0586C174.75 11.0586 174.303 10.9609 173.873 10.7656C173.447 10.5703 173.072 10.2988 172.748 9.95117C172.424 9.60352 172.164 9.19727 171.969 8.73242C171.773 8.26758 171.676 7.76367 171.676 7.2207C171.676 6.68555 171.773 6.18359 171.969 5.71484C172.164 5.24609 172.424 4.83789 172.748 4.49023C173.072 4.14258 173.447 3.87109 173.873 3.67578C174.303 3.48047 174.75 3.38281 175.215 3.38281C175.621 3.38281 175.994 3.44922 176.334 3.58203C176.674 3.71094 176.98 3.89453 177.254 4.13281C177.527 4.36719 177.76 4.64062 177.951 4.95312C178.143 5.26562 178.291 5.60156 178.396 5.96094H177.371C177.309 5.72266 177.215 5.49805 177.09 5.28711C176.969 5.07227 176.814 4.88672 176.627 4.73047C176.443 4.57422 176.234 4.45117 176 4.36133C175.766 4.26758 175.504 4.2207 175.215 4.2207ZM184.695 10.1621V11H179.773V3.44141H184.572V4.2793H180.734V6.68164H184.273V7.51953H180.734V10.1621H184.695ZM134.539 17.4219C134.539 17.1641 134.6 16.9141 134.721 16.6719C134.842 16.4258 135.012 16.207 135.23 16.0156C135.449 15.8242 135.709 15.6719 136.01 15.5586C136.311 15.4414 136.641 15.3828 137 15.3828C137.328 15.3828 137.633 15.4434 137.914 15.5645C138.199 15.6816 138.447 15.8418 138.658 16.0449C138.873 16.248 139.039 16.4902 139.156 16.7715C139.277 17.0527 139.338 17.3496 139.338 17.6621H138.383C138.383 17.2363 138.25 16.8906 137.984 16.625C137.719 16.3555 137.391 16.2207 137 16.2207C136.777 16.2207 136.572 16.2559 136.385 16.3262C136.201 16.3926 136.043 16.4824 135.91 16.5957C135.781 16.7051 135.68 16.832 135.605 16.9766C135.535 17.1211 135.5 17.2695 135.5 17.4219C135.5 17.7344 135.6 17.9766 135.799 18.1484C135.998 18.3203 136.246 18.4648 136.543 18.582C136.84 18.6953 137.162 18.8027 137.51 18.9043C137.857 19.002 138.18 19.1328 138.477 19.2969C138.773 19.4609 139.021 19.6777 139.221 19.9473C139.42 20.2129 139.52 20.5703 139.52 21.0195C139.52 21.293 139.461 21.5527 139.344 21.7988C139.23 22.041 139.064 22.2559 138.846 22.4434C138.631 22.6309 138.367 22.7812 138.055 22.8945C137.742 23.0039 137.391 23.0586 137 23.0586C136.609 23.0586 136.258 23.0039 135.945 22.8945C135.633 22.7812 135.367 22.623 135.148 22.4199C134.934 22.2129 134.768 21.9707 134.65 21.6934C134.537 21.4121 134.48 21.1074 134.48 20.7793H135.441C135.441 21.2363 135.572 21.5918 135.834 21.8457C136.1 22.0957 136.488 22.2207 137 22.2207C137.512 22.2207 137.898 22.1055 138.16 21.875C138.426 21.6406 138.559 21.3555 138.559 21.0195C138.559 20.707 138.459 20.4648 138.26 20.293C138.061 20.1211 137.812 19.9785 137.516 19.8652C137.219 19.748 136.896 19.6406 136.549 19.543C136.201 19.4414 135.879 19.3086 135.582 19.1445C135.289 18.9805 135.041 18.7656 134.838 18.5C134.639 18.2305 134.539 17.8711 134.539 17.4219ZM141.324 19.2207C141.324 19.6543 141.395 20.0547 141.535 20.4219C141.68 20.7891 141.871 21.1074 142.109 21.377C142.352 21.6426 142.629 21.8496 142.941 21.998C143.254 22.1465 143.574 22.2207 143.902 22.2207C144.23 22.2207 144.551 22.1465 144.863 21.998C145.176 21.8496 145.451 21.6426 145.689 21.377C145.928 21.1074 146.119 20.7891 146.264 20.4219C146.408 20.0508 146.48 19.6504 146.48 19.2207C146.48 18.7871 146.408 18.3867 146.264 18.0195C146.119 17.6523 145.928 17.3359 145.689 17.0703C145.451 16.8008 145.176 16.5918 144.863 16.4434C144.551 16.2949 144.23 16.2207 143.902 16.2207C143.574 16.2207 143.254 16.2949 142.941 16.4434C142.629 16.5918 142.352 16.8008 142.109 17.0703C141.871 17.3359 141.68 17.6523 141.535 18.0195C141.395 18.3867 141.324 18.7871 141.324 19.2207ZM147.441 19.2207C147.441 19.7637 147.344 20.2676 147.148 20.7324C146.953 21.1973 146.693 21.6035 146.369 21.9512C146.045 22.2988 145.668 22.5703 145.238 22.7656C144.812 22.9609 144.367 23.0586 143.902 23.0586C143.438 23.0586 142.99 22.9609 142.561 22.7656C142.135 22.5703 141.76 22.2988 141.436 21.9512C141.111 21.6035 140.852 21.1973 140.656 20.7324C140.461 20.2676 140.363 19.7637 140.363 19.2207C140.363 18.6855 140.461 18.1836 140.656 17.7148C140.852 17.2461 141.111 16.8379 141.436 16.4902C141.76 16.1426 142.135 15.8711 142.561 15.6758C142.99 15.4805 143.438 15.3828 143.902 15.3828C144.367 15.3828 144.812 15.4805 145.238 15.6758C145.668 15.8711 146.045 16.1426 146.369 16.4902C146.693 16.8379 146.953 17.2461 147.148 17.7148C147.344 18.1836 147.441 18.6855 147.441 19.2207ZM149.785 16.2793V18.7988H152.785V19.6426H149.785V23H148.824V15.4414H153.441V16.2793H149.785ZM159.682 16.2793H157.402V23H156.441V16.2793H154.162V15.4414H159.682V16.2793ZM164.545 17.5391L162.98 23H162.324L159.98 15.4414H161.006L162.682 20.9023L164.246 15.4414H164.844L166.402 20.9023L168.084 15.4414H169.104L166.766 23H166.104L164.545 17.5391ZM173.604 21.1426H170.486L169.766 23H168.746L171.629 15.4414H172.467L175.344 23H174.324L173.604 21.1426ZM170.785 20.2988H173.305L172.045 17L170.785 20.2988ZM178.701 19.8828H177.266V23H176.305V15.4414H179.123C179.436 15.4414 179.73 15.502 180.008 15.623C180.289 15.7402 180.531 15.9004 180.734 16.1035C180.941 16.3027 181.104 16.5391 181.221 16.8125C181.342 17.082 181.402 17.3652 181.402 17.6621C181.402 18.1035 181.314 18.4629 181.139 18.7402C180.963 19.0137 180.771 19.2305 180.564 19.3906C180.318 19.582 180.043 19.7246 179.738 19.8184L181.584 23H180.506L178.701 19.8828ZM177.266 19.0391H179.123C179.299 19.0391 179.467 19.0039 179.627 18.9336C179.787 18.8594 179.928 18.7617 180.049 18.6406C180.17 18.5156 180.266 18.3691 180.336 18.2012C180.406 18.0332 180.441 17.8535 180.441 17.6621C180.441 17.4707 180.406 17.291 180.336 17.123C180.266 16.9512 180.17 16.8047 180.049 16.6836C179.928 16.5586 179.787 16.4609 179.627 16.3906C179.467 16.3164 179.299 16.2793 179.123 16.2793H177.266V19.0391ZM183.383 19.2207C183.383 19.6543 183.453 20.0547 183.594 20.4219C183.738 20.7891 183.93 21.1074 184.168 21.377C184.41 21.6426 184.688 21.8496 185 21.998C185.312 22.1465 185.633 22.2207 185.961 22.2207C186.289 22.2207 186.609 22.1465 186.922 21.998C187.234 21.8496 187.51 21.6426 187.748 21.377C187.986 21.1074 188.178 20.7891 188.322 20.4219C188.467 20.0508 188.539 19.6504 188.539 19.2207C188.539 18.7871 188.467 18.3867 188.322 18.0195C188.178 17.6523 187.986 17.3359 187.748 17.0703C187.51 16.8008 187.234 16.5918 186.922 16.4434C186.609 16.2949 186.289 16.2207 185.961 16.2207C185.633 16.2207 185.312 16.2949 185 16.4434C184.688 16.5918 184.41 16.8008 184.168 17.0703C183.93 17.3359 183.738 17.6523 183.594 18.0195C183.453 18.3867 183.383 18.7871 183.383 19.2207ZM189.5 19.2207C189.5 19.7637 189.402 20.2676 189.207 20.7324C189.012 21.1973 188.752 21.6035 188.428 21.9512C188.104 22.2988 187.727 22.5703 187.297 22.7656C186.871 22.9609 186.426 23.0586 185.961 23.0586C185.496 23.0586 185.049 22.9609 184.619 22.7656C184.193 22.5703 183.818 22.2988 183.494 21.9512C183.17 21.6035 182.91 21.1973 182.715 20.7324C182.52 20.2676 182.422 19.7637 182.422 19.2207C182.422 18.6855 182.52 18.1836 182.715 17.7148C182.91 17.2461 183.17 16.8379 183.494 16.4902C183.818 16.1426 184.193 15.8711 184.619 15.6758C185.049 15.4805 185.496 15.3828 185.961 15.3828C186.426 15.3828 186.871 15.4805 187.297 15.6758C187.727 15.8711 188.104 16.1426 188.428 16.4902C188.752 16.8379 189.012 17.2461 189.207 17.7148C189.402 18.1836 189.5 18.6855 189.5 19.2207ZM193.514 23H192.559L189.793 15.4414H190.818L193.033 21.6172L195.254 15.4414H196.273L193.514 23ZM199.988 13.0977H200.891L199.865 14.5391H199.268L199.988 13.0977ZM196.625 15.4414H197.65L199.508 19.0391L201.365 15.4414H202.391L199.988 20.0586V23H199.027V20.0586L196.625 15.4414ZM206.223 16.2207C205.895 16.2207 205.574 16.2949 205.262 16.4434C204.949 16.5918 204.672 16.8008 204.43 17.0703C204.191 17.3359 204 17.6523 203.855 18.0195C203.715 18.3867 203.645 18.7871 203.645 19.2207C203.645 19.6543 203.715 20.0547 203.855 20.4219C204 20.7891 204.191 21.1074 204.43 21.377C204.672 21.6426 204.949 21.8496 205.262 21.998C205.574 22.1465 205.895 22.2207 206.223 22.2207C206.52 22.2207 206.791 22.1758 207.037 22.0859C207.287 21.9922 207.506 21.8672 207.693 21.7109C207.881 21.5547 208.035 21.3711 208.156 21.1602C208.281 20.9453 208.377 20.7188 208.443 20.4805H209.463C209.357 20.8398 209.209 21.1758 209.018 21.4883C208.826 21.8008 208.592 22.0762 208.314 22.3145C208.041 22.5488 207.727 22.7324 207.371 22.8652C207.02 22.9941 206.637 23.0586 206.223 23.0586C205.758 23.0586 205.311 22.9609 204.881 22.7656C204.455 22.5703 204.08 22.2988 203.756 21.9512C203.432 21.6035 203.172 21.1973 202.977 20.7324C202.781 20.2676 202.684 19.7637 202.684 19.2207C202.684 18.6855 202.781 18.1836 202.977 17.7148C203.172 17.2461 203.432 16.8379 203.756 16.4902C204.08 16.1426 204.455 15.8711 204.881 15.6758C205.311 15.4805 205.758 15.3828 206.223 15.3828C206.629 15.3828 207.002 15.4492 207.342 15.582C207.682 15.7109 207.988 15.8945 208.262 16.1328C208.535 16.3672 208.768 16.6406 208.959 16.9531C209.15 17.2656 209.299 17.6016 209.404 17.9609H208.379C208.316 17.7227 208.223 17.498 208.098 17.2871C207.977 17.0723 207.822 16.8867 207.635 16.7305C207.451 16.5742 207.242 16.4512 207.008 16.3613C206.773 16.2676 206.512 16.2207 206.223 16.2207ZM216.359 15.4414V23H215.398V19.5781H211.742V23H210.781V15.4414H211.742V18.7402H215.398V15.4414H216.359ZM138.857 33.1426H135.74L135.02 35H134L136.883 27.4414H137.721L140.598 35H139.578L138.857 33.1426ZM136.039 32.2988H138.559L137.299 29L136.039 32.2988ZM144.371 28.2207C144.043 28.2207 143.723 28.2949 143.41 28.4434C143.098 28.5918 142.82 28.8008 142.578 29.0703C142.34 29.3359 142.148 29.6523 142.004 30.0195C141.863 30.3867 141.793 30.7871 141.793 31.2207C141.793 31.6543 141.863 32.0547 142.004 32.4219C142.148 32.7891 142.34 33.1074 142.578 33.377C142.82 33.6426 143.098 33.8496 143.41 33.998C143.723 34.1465 144.043 34.2207 144.371 34.2207C144.668 34.2207 144.953 34.1582 145.227 34.0332C145.504 33.9082 145.748 33.7441 145.959 33.541C146.174 33.3379 146.342 33.1094 146.463 32.8555C146.588 32.5977 146.65 32.332 146.65 32.0586H144.43V31.2207H147.611V35H146.891L146.65 34.0977C146.475 34.2734 146.275 34.4336 146.053 34.5781C145.854 34.6992 145.613 34.8105 145.332 34.9121C145.051 35.0098 144.73 35.0586 144.371 35.0586C143.906 35.0586 143.459 34.9609 143.029 34.7656C142.604 34.5703 142.229 34.2988 141.904 33.9512C141.58 33.6035 141.32 33.1973 141.125 32.7324C140.93 32.2676 140.832 31.7637 140.832 31.2207C140.832 30.6855 140.93 30.1836 141.125 29.7148C141.32 29.2461 141.58 28.8379 141.904 28.4902C142.229 28.1426 142.604 27.8711 143.029 27.6758C143.459 27.4805 143.906 27.3828 144.371 27.3828C144.785 27.3828 145.162 27.4434 145.502 27.5645C145.846 27.6816 146.148 27.8516 146.41 28.0742C146.676 28.293 146.902 28.5527 147.09 28.8535C147.277 29.1504 147.432 29.4785 147.553 29.8379H146.533C146.381 29.3574 146.133 28.9688 145.789 28.6719C145.445 28.3711 144.973 28.2207 144.371 28.2207ZM154.332 34.1621V35H149.41V27.4414H154.209V28.2793H150.371V30.6816H153.91V31.5195H150.371V34.1621H154.332ZM161.469 27.4414V35H160.631L156.852 29.2988V35H155.891V27.4414H156.729L160.508 33.1426V27.4414H161.469ZM168.131 28.2793H165.852V35H164.891V28.2793H162.611V27.4414H168.131V28.2793ZM171.91 35.0586C171.504 35.0586 171.133 34.9922 170.797 34.8594C170.461 34.7227 170.17 34.5352 169.924 34.2969C169.682 34.0547 169.492 33.7695 169.355 33.4414C169.219 33.1133 169.15 32.752 169.15 32.3574V27.4414H170.111V32.3574C170.111 32.9316 170.275 33.3867 170.604 33.7227C170.932 34.0547 171.367 34.2207 171.91 34.2207C172.453 34.2207 172.889 34.0547 173.217 33.7227C173.549 33.3906 173.715 32.9355 173.715 32.3574V27.4414H174.67V32.3574C174.67 32.748 174.602 33.1094 174.465 33.4414C174.332 33.7695 174.143 34.0547 173.896 34.2969C173.654 34.5352 173.363 34.7227 173.023 34.8594C172.688 34.9922 172.316 35.0586 171.91 35.0586ZM178.865 31.8828H177.43V35H176.469V27.4414H179.287C179.6 27.4414 179.895 27.502 180.172 27.623C180.453 27.7402 180.695 27.9004 180.898 28.1035C181.105 28.3027 181.268 28.5391 181.385 28.8125C181.506 29.082 181.566 29.3652 181.566 29.6621C181.566 30.1035 181.479 30.4629 181.303 30.7402C181.127 31.0137 180.936 31.2305 180.729 31.3906C180.482 31.582 180.207 31.7246 179.902 31.8184L181.748 35H180.67L178.865 31.8828ZM177.43 31.0391H179.287C179.463 31.0391 179.631 31.0039 179.791 30.9336C179.951 30.8594 180.092 30.7617 180.213 30.6406C180.334 30.5156 180.43 30.3691 180.5 30.2012C180.57 30.0332 180.605 29.8535 180.605 29.6621C180.605 29.4707 180.57 29.291 180.5 29.123C180.43 28.9512 180.334 28.8047 180.213 28.6836C180.092 28.5586 179.951 28.4609 179.791 28.3906C179.631 28.3164 179.463 28.2793 179.287 28.2793H177.43V31.0391Z" fill="#374562"/>
<rect x="125" width="1" height="38" fill="#374562"/>
</svg>
