<svg viewBox="0 0 2988 896" xmlns="http://www.w3.org/2000/svg" fill-rule="evenodd" clip-rule="evenodd" stroke-linecap="round" stroke-linejoin="round" stroke-miterlimit="1.5"><path fill="none" d="M1.934 0h2981.84v891.834H1.934z"/><clipPath id="a"><path d="M1.934 0h2981.84v891.834H1.934z"/></clipPath><g clip-path="url(#a)"><g fill="#272352"><path d="M1.934 891.834H116.59V790.363h82.553c118.67 0 175.425-79.686 175.425-174.278 0-90.005-56.755-171.411-175.425-171.411H1.934v447.16zm190.903-342.823c48.156 0 65.927 32.104 65.927 67.648 0 39.556-17.771 69.367-65.927 69.367H116.59V549.011h76.247z" fill-rule="nonzero"/><path d="M632.025 591.434l48.729 131.282h-98.031L543.739 826.48h175.998l24.651 65.354h124.976L688.78 444.674"/><path d="M1075.62 891.834h241.925c90.579 0 145.614-52.168 145.614-126.122 0-52.169-29.237-86.566-74.527-103.764 33.251-18.345 54.462-48.729 54.462-94.019 0-71.087-48.729-123.255-145.04-123.255H1075.62v447.16zm229.313-182.304c30.957 0 42.423 15.479 42.423 38.41 0 23.505-11.466 40.13-42.423 40.13h-114.656v-78.54h114.656zm-13.759-160.519c24.078 0 36.117 14.332 36.117 35.544 0 21.211-11.465 35.543-42.423 35.543h-94.591v-71.087h100.897zm384.506 342.823h343.396V781.191h-228.74v-57.329h188.037V620.098h-188.037v-64.207h228.74V444.674H1675.68v447.16zm639.71 0V642.456l199.503 249.378h96.884v-447.16h-114.083v249.951l-199.502-249.951h-97.458v447.16h114.656zm499.05-447.16h114.657v447.161H2814.44z" fill-rule="nonzero"/></g><path d="M641.048 587.871s94.437-275.825 93.621-276.64c-.815-.816 2168.42-136.379 2168.42-136.379l54.551-143.197" fill="none" stroke="#272352" stroke-width="6.25"/><circle cx="734.669" cy="304.412" r="40.914" fill="#272352"/><circle cx="2910.11" cy="169.213" r="47.53" fill="#272352"/><circle cx="2956.5" cy="27.276" r="27.276" fill="#272352"/></g></svg>