<svg id="Vrstva_1" data-name="Vrstva 1" xmlns="http://www.w3.org/2000/svg" viewBox="0 0 355.641 80.862"><defs><style>.cls-1{fill:#f8b990}.cls-2{fill:#1d1d1b}</style></defs><path class="cls-1" d="M136.191 298.162c-6.16-1.234-10.2-5.913-14.12-10.467-4.548-5.284-9.25-10.746-17.377-10.992a39.682 39.682 0 0031.497 58.181z" transform="translate(-100.035 -255.5)"/><path class="cls-1" d="M123.657 286.436c4.445 5.165 8.644 10.044 15.693 10.071l.163.001h.162c7.142-.028 11.393-4.927 15.894-10.114 4.699-5.416 9.573-10.983 18.057-11.662a39.695 39.695 0 00-67.86.077c8.414.663 13.238 6.22 17.89 11.627" transform="translate(-100.035 -255.5)"/><path class="cls-1" d="M174.707 276.625c-8.207.265-12.961 5.739-17.558 11.035-3.827 4.41-7.77 8.934-13.642 10.359v36.846a39.69 39.69 0 0031.2-58.24m-33.257 21.752c-.352.039-.714.06-1.079.076v.035l-.859-.003-.859.003v-.036c-.135-.005-.27-.01-.404-.019v36.578c.49.019.978.037 1.471.037.58 0 1.155-.018 1.73-.044z" transform="translate(-100.035 -255.5)"/><path class="cls-2" d="M96.614 0h4.435v79.727h-4.435z"/><path class="cls-2" d="M243.277 280.179a25.561 25.561 0 0119.903 8.759 27.742 27.742 0 017.28 19.219 28.773 28.773 0 01-6.598 18.54 25.229 25.229 0 01-20.585 9.665q-12.622 0-20.471-9.211a28.756 28.756 0 01-.455-37.191q7.959-9.778 20.926-9.781m0 52.205a20.617 20.617 0 0017.174-8.417 25.165 25.165 0 005.572-15.81 24.185 24.185 0 00-6.14-16.377 22.158 22.158 0 00-33.04-.454 24.393 24.393 0 00-6.426 16.83 25.003 25.003 0 005.686 16.15 21.124 21.124 0 0017.174 8.078m65.005-52.205a25.56 25.56 0 0119.902 8.759 27.74 27.74 0 017.28 19.219 28.787 28.787 0 01-6.597 18.54 25.233 25.233 0 01-20.585 9.665q-12.626 0-20.472-9.211a28.758 28.758 0 01-.455-37.191q7.959-9.778 20.927-9.781m0 52.205a20.617 20.617 0 0017.173-8.417 25.16 25.16 0 005.572-15.81 24.173 24.173 0 00-6.143-16.377 22.156 22.156 0 00-33.037-.454 24.397 24.397 0 00-6.425 16.83 24.998 24.998 0 005.686 16.15 21.123 21.123 0 0017.174 8.078m42.988 2.843h-4.435v-33.552a23.004 23.004 0 014.095-13.193q5.685-8.3 16.717-8.302 9.438 0 15.696 5.686 6.71 6.14 6.71 16.264v33.097h-4.435v-32.414a19.958 19.958 0 00-3.755-11.941q-4.774-6.71-13.533-6.711a16.087 16.087 0 00-12.056 5.231 17.467 17.467 0 00-5.004 12.513zm77.223-55.048a25.562 25.562 0 0119.905 8.759 27.744 27.744 0 017.278 19.219 28.786 28.786 0 01-6.596 18.54 25.231 25.231 0 01-20.587 9.665q-12.622 0-20.47-9.211a28.756 28.756 0 01-.456-37.191q7.959-9.778 20.926-9.781m0 52.205a20.616 20.616 0 0017.174-8.417 25.16 25.16 0 005.573-15.81 24.177 24.177 0 00-6.142-16.377 22.155 22.155 0 00-33.037-.454 24.39 24.39 0 00-6.426 16.83 25.003 25.003 0 005.685 16.15 21.122 21.122 0 0017.173 8.078" transform="translate(-100.035 -255.5)"/></svg>