<svg xmlns="http://www.w3.org/2000/svg" height="50.632" width="572.961"><path d="M56.815 48.659H90.65v-3.991H61.331V28.24h24.15v-3.993h-24.15V6.838H90.65V2.848H56.815zm74.189-45.812h-19.045V48.66h4.516V34.654h14.529c10.996 0 17.736-4.91 17.736-15.511 0-11.192-6.74-16.296-17.736-16.296m0 27.75h-14.529V6.839h14.529c8.508 0 13.089 3.796 13.089 12.304 0 8.05-4.646 11.454-13.089 11.454m38.483-27.75h-4.515V48.66h33.769v-3.993h-29.254zm72.301 27.095c0 11.912-4.32 15.708-14.268 15.708-9.752 0-14.005-4.19-14.005-15.708V2.847h-4.516v26.768c0 14.594 5.759 19.829 18.521 20.027 13.351-.263 18.783-5.434 18.783-20.027V2.847h-4.515zm43.726.13h15.707v12.24c-2.749 1.308-7.854 3.338-14.397 3.338-13.286 0-18.784-9.294-18.784-20.29 0-12.107 7.069-19.371 19.111-19.371 9.555 0 14.397 4.057 14.397 4.057l2.159-3.6s-5.366-4.45-16.557-4.45c-15.25 0-23.693 9.556-23.693 23.365 0 13.154 6.611 24.28 23.366 24.28 11.781 0 18.651-5.693 18.651-5.693V26.08h-19.961v3.993zm287.44-22c-7.305 1.738-13.193 3.09-21.203 4.922-13.021 2.978-58.787 14.519-73.863 14.355-4.955-.054-10.063.017-15.228-3.215-2.532-1.584 1.079-3.48 3.568-4.798 4.239-2.244 9.825-5.266 11.116-10.44.983-3.944-1.293-7.186-4.703-8.398-7.27-2.582-14.549 5.364-16.876 12.653-.6 1.877-.869 3.709-.729 5.308.021.229.043.48-.086.672-.091.134-.24.214-.384.289-2.402 1.256-4.703 2.655-7.23 3.655-2.594 1.027-5.215 1.983-7.842 2.92-2.846 1.018-5.708 2.078-8.747 2.323-1.799.145-3.912.068-5.303-1.25-2.006-1.898-1.751-5.167-2.209-7.675-.428-2.348-1.072-4.824-2.837-6.43-3.999-3.633-8.678-.787-12.567 1.123-.396.195-.966.348-1.204-.024-.095-.147-.097-.333-.109-.506-.323-4.192-6.102-6.507-10.676-5.83-4.325.639-8.869 3.213-12.684 5.207-1.758.918-1.375-1.245-1.386-2.181-.02-1.56-.351-3.15-1.435-4.333-3.691-4.03-10.526-1.496-14.354.793-13.774 8.236-25.139 19.867-36.335 31.363-1.873 1.923-3.561 3.91-5.085 6.124-.784 1.135-1.381 2.522-1.087 3.87.294 1.348 1.801 2.464 3.071 1.924 1.287-.55 1.913-2.41 2.645-3.52 1.139-1.726 2.443-3.368 3.745-4.975 2.552-3.15 5.315-6.126 8.214-8.962 5.887-5.762 12.325-10.936 18.93-15.847 4.001-2.974 8.159-5.807 12.76-7.731.982-.412 2.115-.78 3.087-.336 1.358.619 1.625 2.445 1.406 3.923-.921 6.258-6.593 10.509-10.309 15.627-.976 1.345-1.861 2.889-1.794 4.55.065 1.662 1.458 3.358 3.11 3.174 1.403-.153 2.338-1.476 3.127-2.646a59.945 59.945 0 0 1 16.271-16.248c2.862-1.921 6.804-3.743 10.259-4.022 1.561-.126 4.102.502 4.342 2.412.11.882-.252 1.749-.641 2.548a31.403 31.403 0 0 1-4.001 6.236c-1.348 1.639.23 3.215 2.01 3.51 2.409.399 4.104-2.177 5.433-4.225a26.337 26.337 0 0 1 5.813-6.371c1.482-1.166 3.195-2.205 5.08-2.244 4.623-.097 4.184 5.972 4.502 9.336.521 5.483 2.989 7.344 8.879 8.113.902.118 1.813.167 2.722.157 4.48-.053 8.704-1.557 12.851-3.102 4.046-1.506 8.159-2.982 11.797-5.352-.024.017 1.618 2.323 3.594 4.052 9.291 8.13 29.093 4.248 41.655 1.676 16.523-3.382 31.745-7.39 49.129-12.733 2.44-.75 10.033-3.222 12.43-4.11 2.059-.762 4.146-1.451 6.19-2.256 3.392-1.332 3.186-3.058 3.171-3.054M461.213 16.58c-.022-1.8 1.204-4.857 1.918-6.28.923-1.838 2.13-3.824 3.845-5.018 2.541-1.768 6.429-.613 5.112 2.865-.793 2.092-3.036 3.879-4.821 5.115-2.185 1.512-6.047 3.863-6.054 3.318M36.782 19.143c0-11.191-6.741-16.296-17.737-16.296H0v45.812h4.517V34.655h14.528s1.694-.031 2.5-.091c.026-.002.05-.007.075-.01l9.43 14.105h4.934l-9.785-14.875c6.687-1.828 10.583-6.588 10.583-14.641M19.045 30.596H4.517V6.839h14.528c8.508 0 13.09 3.796 13.09 12.304 0 8.05-4.647 11.453-13.09 11.453" fill="#fff"/></svg>