<?xml version="1.0" encoding="utf-8"?>
<!-- Generator: Adobe Illustrator 25.3.1, SVG Export Plug-In . SVG Version: 6.00 Build 0)  -->
<svg version="1.1" id="Vrstva_1" xmlns="http://www.w3.org/2000/svg" xmlns:xlink="http://www.w3.org/1999/xlink" x="0px" y="0px"
	 viewBox="0 0 1016.05 779.33" style="enable-background:new 0 0 1016.05 779.33;" xml:space="preserve">
<style type="text/css">
	.st0{fill:#3CFF8C;}
	.st1{fill:#1E257B;}
	.st2{fill-rule:evenodd;clip-rule:evenodd;fill:#1E257B;}
	.st3{fill-rule:evenodd;clip-rule:evenodd;fill:#37DE89;}
	.st4{fill-rule:evenodd;clip-rule:evenodd;fill:#3CFF8C;}
	.st5{enable-background:new    ;}
</style>
<g id="Logo">
	<path id="Clip" class="st0" d="M415.17,215.89c-26.54,14.25-48.78,33.03-66.91,56.48c-23.61,30.55-38.45,67.86-42.31,106.36
		c-4.61,46.01,6.06,91.67,30.64,131.09c28.32,45.43,73.08,78.06,125.35,91.37c10.49,2.68,22.02,4.63,32.89,5.6
		c6.9,0.6,12.22,0.82,19.56,0.8l4.29-0.02l27.4,53.84c25.26,49.63,27.49,54.04,28.56,56.44c2.02,4.5,4.69,9.48,7.13,13.27
		c12.84,19.97,33.04,34.29,56.31,39.94c10.61,2.58,21.88,3.25,32.75,1.97c7.97-0.94,16.01-2.98,23.46-5.95
		c2.88-1.15,4.06-1.69,7.73-3.54c3.68-1.87,4.82-2.52,7.46-4.17c18.46-11.61,32.12-29.13,38.89-49.87
		c3.94-12.08,5.37-24.69,4.24-37.25c-0.94-10.25-3.49-20.02-7.78-29.63c-0.45-1.02-21.22-41.94-63.9-125.88
		c-45.7-89.9-63.21-124.4-63.18-124.49c0.05-0.14-1.44-2.8-2.6-4.62c-7.28-11.53-18.11-20.41-30.93-25.36
		c-1.65-0.64-5.55-1.89-7.24-2.31c-11.56-2.92-23.6-2.56-34.93,1.03c-3.02,0.96-5.43,1.93-8.58,3.45
		c-13.38,6.48-23.96,17.33-30.14,30.9c-2.18,4.79-3.85,10.17-4.76,15.33c-1.19,6.85-1.27,13.65-0.24,20.49
		c0.89,5.92,2.47,11.22,5.02,16.93c0.96,2.15,101.22,199.38,101.89,200.41c5.74,9.01,17.43,12.2,26.95,7.36
		c6.22-3.16,10.39-9.13,11.24-16.08c0.39-3.3-0.02-6.71-1.21-9.86c-0.2-0.54-15.23-30.16-50.53-99.6
		c-33.9-66.68-50.39-99.17-50.68-99.87c-1.2-2.9-1.74-5.4-1.79-8.39c-0.04-2.41,0.26-4.51,0.97-6.83c1.29-4.25,3.74-7.92,7.13-10.69
		c1.29-1.06,2.18-1.62,3.99-2.54c1.88-0.96,2.82-1.32,4.61-1.78c6-1.54,12.68-0.34,17.91,3.22c2.21,1.5,4.3,3.6,5.7,5.7
		c0.42,0.62,12.41,24.19,64.16,126.06c59.85,117.83,63.67,125.37,64.1,126.51c1.54,4.09,2.45,7.51,3.02,11.32
		c2.17,14.44-1.98,29.23-11.35,40.53c-6.28,7.58-14.77,13.23-24.38,16.24c-13.29,4.15-28.06,2.58-40.32-4.31
		c-6.98-3.91-12.85-9.28-17.27-15.76l-0.78-1.15l-34.13-67.1c-32.76-64.4-34.15-67.13-34.66-67.82c-2.89-3.87-6.31-6.37-10.65-7.76
		c-2.13-0.69-4.1-1-6.3-0.99c-1.6,0-2.6,0.09-4.22,0.41c-3.12,0.59-12.63,0.86-20.19,0.56c-20.78-0.82-41.71-5.68-60.82-14.12
		c-26.65-11.76-49.56-30.1-66.7-53.39c-11.54-15.67-20.28-33.27-25.8-51.95c-5.97-20.19-8.03-41.63-6-62.67
		c2.25-23.26,9.3-45.7,20.74-66.04c12.91-22.94,30.85-42.26,52.78-56.82c10.44-6.94,21.89-12.8,33.74-17.27
		c26.1-9.86,54.28-12.95,82-8.98c6.97,1,13.82,2.43,20.91,4.37c4.23,1.16,11.99,3.74,16.21,5.38c22.22,8.69,42.08,21.81,58.59,38.69
		c17.73,18.14,31.28,40.53,39.23,64.79c9.19,28.1,10.7,57.92,4.38,86.98c-0.78,3.56-1.47,6.23-2.17,8.34
		c-1.01,3.04-1.36,4.92-1.37,7.35c-0.01,3.42,0.73,6.51,2.28,9.56c1.11,2.19,2.22,3.72,3.97,5.46c4.62,4.6,11.15,6.75,17.65,5.83
		c2.5-0.35,4.13-0.88,6.53-2.09c1.92-0.98,2.69-1.48,4.13-2.72c3.54-3.01,6.03-7.23,6.95-11.79c0.11-0.57,0.37-1.67,0.58-2.44
		c10.37-39.32,8.95-80.95-4.07-119.37c-6.14-18.11-14.82-35.48-25.64-51.28c-24.48-35.75-59.47-62.82-100.49-77.76
		c-37.36-13.6-77.91-16.21-116.73-7.49c-14.16,3.18-27.9,7.84-41.54,14.09C423.91,211.48,416.94,214.93,415.17,215.89L415.17,215.89
		z"/>
	<g id="Festival">
		<polygon class="st1" points="53.77,555.75 8.25,555.75 8.25,624.82 21.74,624.82 21.74,596.79 49.11,596.79 49.11,584.76 
			21.74,584.76 21.74,567.78 53.77,567.78 		"/>
		<polygon class="st1" points="111.03,555.75 65.51,555.75 65.51,624.82 111.03,624.82 111.03,612.79 79,612.79 79,596.01 
			106.37,596.01 106.37,583.98 79,583.98 79,567.78 111.03,567.78 		"/>
		<path class="st1" d="M144.81,555.17c-14.95,0-24.07,8.63-24.07,20.96c0,5.82,1.65,10.38,4.95,13.58
			c3.11,3.01,7.57,4.85,13.39,5.72l8.25,1.26c3.3,0.49,4.85,1.07,6.21,2.33c1.46,1.46,2.13,3.4,2.13,5.72
			c0,5.53-4.27,8.64-12.32,8.64c-6.31,0-12.23-1.46-16.6-5.82l-8.73,8.73c6.79,6.89,14.75,9.12,25.23,9.12
			c14.56,0,25.62-7.57,25.62-20.96c0-6.21-1.65-11.06-5.34-14.55c-3.01-2.91-6.89-4.56-13.2-5.43l-8.25-1.26
			c-2.91-0.39-4.95-1.36-6.31-2.62c-1.46-1.36-2.04-3.1-2.04-4.95c0-4.75,3.49-8.73,10.67-8.73c6.31,0,10.48,1.07,14.17,4.75
			l8.54-8.44C161.21,557.49,154.32,555.17,144.81,555.17L144.81,555.17z"/>
		<polygon class="st1" points="225.36,555.75 175.76,555.75 175.76,567.78 193.82,567.78 193.82,624.82 207.31,624.82 
			207.31,567.78 225.36,567.78 		"/>
		<polygon class="st1" points="249.82,555.75 236.33,555.75 236.33,624.82 249.82,624.82 		"/>
		<polygon class="st2" points="283.9,624.82 294.62,612.36 295.69,611.39 314.06,555.75 299.99,555.75 286.21,600.67 272.24,555.75 
			258.26,555.75 281.07,624.82 		"/>
		<polygon class="st3" points="291.26,624.82 283.9,624.82 294.62,612.36 295.69,611.39 		"/>
		<path class="st1" d="M317.24,607.89c2.47,0.98,4.74,2.48,6.7,4.43c1.54,1.53,2.82,3.28,3.79,5.17l1.67-4.89h24.46l4.08,12.22
			h14.17l-25.23-69.08H336.3L317.24,607.89L317.24,607.89z M341.63,576.22l8.44,25.03h-16.99L341.63,576.22L341.63,576.22z"/>
		<path class="st3" d="M317.24,607.89l-6.19,16.94h14.17l2.5-7.33c-0.97-1.89-2.25-3.64-3.79-5.17
			C321.98,610.37,319.71,608.87,317.24,607.89L317.24,607.89z"/>
		<polygon class="st1" points="394.04,555.75 380.55,555.75 380.55,624.82 425.38,624.82 425.38,612.79 394.04,612.79 		"/>
	</g>
	<g id="Bureaucracy">
		<path class="st1" d="M7.99,452.09v69.08h28.92c12.33,0,21.25-6.99,21.25-19.89c0-9.22-5.34-13.58-9.61-15.52
			c3.49-1.75,8.54-6.6,8.54-14.26c0-11.74-7.86-19.4-21.45-19.4L7.99,452.09L7.99,452.09z M35.65,492.16c6.02,0,9.02,3.69,9.02,8.44
			c0,4.85-3.01,8.54-9.02,8.54H21.48v-16.98H35.65L35.65,492.16z M34.78,464.12c5.73,0,8.83,3.2,8.83,7.96
			c0,4.85-3.11,8.05-8.83,8.05h-13.3v-16.01L34.78,464.12L34.78,464.12z"/>
		<path class="st1" d="M121.64,452.09h-13.49v44.92c0,7.86-4.76,12.71-12.04,12.71s-11.84-4.85-11.84-12.71v-44.92H70.78v45.4
			c0,14.65,11.16,24.25,25.33,24.25c14.27,0,25.53-9.61,25.53-24.25V452.09L121.64,452.09z"/>
		<path class="st1" d="M136.68,452.09v69.08h13.49v-27.55h9.71l13.49,27.55H189l-15.43-29.79c6.7-2.33,12.62-8.44,12.62-18.14
			c0-11.54-8.25-21.15-22.42-21.15H136.68L136.68,452.09z M162.98,464.12c5.92,0,9.71,3.69,9.71,9.02c0,5.43-3.79,9.12-9.71,9.12
			h-12.81v-18.14H162.98L162.98,464.12z"/>
		<polygon class="st1" points="245.67,452.09 200.15,452.09 200.15,521.17 245.67,521.17 245.67,509.14 213.64,509.14 
			213.64,492.35 241.01,492.35 241.01,480.32 213.64,480.32 213.64,464.12 245.67,464.12 		"/>
		<path class="st1" d="M287.02,452.09h-10.58l-25.23,69.08h14.17l4.17-12.23H294l4.08,12.23h14.17L287.02,452.09L287.02,452.09z
			 M281.77,472.56l8.44,25.03h-16.98L281.77,472.56L281.77,472.56z"/>
		<path class="st1" d="M370.48,452.09h-13.49v44.92c0,7.86-4.76,12.71-12.03,12.71s-11.84-4.85-11.84-12.71v-44.92h-13.49v45.4
			c0,14.65,11.16,24.25,25.33,24.25c14.27,0,25.52-9.61,25.52-24.25V452.09L370.48,452.09z"/>
		<path class="st1" d="M408.72,451.51c-7.96,0-13.78,2.62-18.54,7.28c-6.89,6.89-6.99,14.65-6.99,27.84s0.1,20.96,6.99,27.84
			c4.76,4.66,10.58,7.28,18.54,7.28c12.91,0,22.9-7.37,25.33-21.83h-13.68c-1.36,5.63-4.95,9.8-11.65,9.8
			c-3.69,0-6.7-1.36-8.64-3.59c-2.52-2.91-3.4-6.31-3.4-19.5s0.87-16.59,3.4-19.5c1.94-2.23,4.95-3.59,8.64-3.59
			c6.7,0,10.29,4.17,11.65,9.8h13.68C431.62,458.88,421.63,451.51,408.72,451.51L408.72,451.51z"/>
		<path class="st1" d="M445.7,452.09v69.08h13.49v-27.55h9.71l13.49,27.55h15.63l-15.43-29.79c6.7-2.33,12.62-8.44,12.62-18.14
			c0-11.54-8.25-21.15-22.42-21.15H445.7L445.7,452.09z M472,464.12c5.92,0,9.71,3.69,9.71,9.02c0,5.43-3.78,9.12-9.71,9.12h-12.81
			v-18.14H472L472,464.12z"/>
		<path class="st1" d="M537.31,452.09h-10.58l-25.23,69.08h14.17l4.17-12.23h24.46l4.08,12.23h14.17L537.31,452.09L537.31,452.09z
			 M532.07,472.56l8.44,25.03h-16.98L532.07,472.56L532.07,472.56z"/>
		<path class="st1" d="M593.22,451.51c-7.96,0-13.78,2.62-18.54,7.28c-6.89,6.89-6.99,14.65-6.99,27.84s0.1,20.96,6.99,27.84
			c4.76,4.66,10.58,7.28,18.54,7.28c12.91,0,22.9-7.37,25.33-21.83h-13.69c-1.36,5.63-4.95,9.8-11.65,9.8
			c-3.69,0-6.7-1.36-8.64-3.59c-2.52-2.91-3.39-6.31-3.39-19.5s0.87-16.59,3.39-19.5c1.94-2.23,4.95-3.59,8.64-3.59
			c6.7,0,10.29,4.17,11.65,9.8h13.69C616.12,458.88,606.12,451.51,593.22,451.51L593.22,451.51z"/>
		<polygon class="st1" points="676.39,452.09 661.73,452.09 649.02,479.94 636.11,452.09 621.46,452.09 642.13,492.94 
			642.13,521.17 655.62,521.17 655.62,492.94 		"/>
	</g>
	<g id="Creative">
		<path class="st1" d="M31.19,347.86c-7.96,0-13.78,2.62-18.54,7.28c-6.89,6.89-6.99,14.65-6.99,27.84s0.1,20.96,6.99,27.84
			c4.76,4.66,10.58,7.28,18.54,7.28c12.91,0,22.9-7.37,25.33-21.83H42.84c-1.36,5.63-4.95,9.8-11.65,9.8c-3.69,0-6.7-1.36-8.64-3.59
			c-2.52-2.91-3.4-6.31-3.4-19.5s0.87-16.59,3.4-19.5c1.94-2.23,4.95-3.59,8.64-3.59c6.7,0,10.29,4.17,11.65,9.8h13.68
			C54.09,355.23,44.1,347.86,31.19,347.86L31.19,347.86z"/>
		<path class="st1" d="M68.17,348.44v69.08h13.49v-27.55h9.7l13.49,27.55h15.62l-15.43-29.78c6.7-2.33,12.62-8.44,12.62-18.14
			c0-11.54-8.25-21.15-22.42-21.15H68.17V348.44z M94.47,360.47c5.92,0,9.7,3.69,9.7,9.02c0,5.43-3.78,9.12-9.7,9.12H81.66v-18.14
			L94.47,360.47L94.47,360.47z"/>
		<path class="st3" d="M177.16,406.94c-20.12,1.53-43.17,3.35-44.11,3.49l-1.41,0.28v6.81h45.52V406.94L177.16,406.94z"/>
		<path class="st2" d="M131.64,410.71l1.41-0.28c0.93-0.14,23.98-1.96,44.11-3.49v-1.45h-32.03V388.7h27.37v-12.03h-27.37v-16.2
			h32.03v-12.03h-45.52V410.71L131.64,410.71z"/>
		<path class="st3" d="M186.82,406.21l-4.13,11.3h14.17l4.17-12.22h10.49c-1.48-0.41-3.01-0.59-4.56-0.59L186.82,406.21
			L186.82,406.21z"/>
		<path class="st2" d="M186.82,406.21l20.15-1.51c1.54,0,3.08,0.18,4.56,0.59h13.96l4.08,12.22h14.17l-25.23-69.08h-10.58
			L186.82,406.21L186.82,406.21z M213.26,368.91l8.44,25.03h-16.98L213.26,368.91L213.26,368.91z"/>
		<polygon class="st1" points="290.13,348.44 240.53,348.44 240.53,360.47 258.58,360.47 258.58,417.51 272.07,417.51 
			272.07,360.47 290.13,360.47 		"/>
		<polygon class="st1" points="314.58,348.44 301.09,348.44 301.09,417.51 314.58,417.51 		"/>
		<polygon class="st1" points="378.83,348.44 364.76,348.44 350.98,393.36 337,348.44 323.03,348.44 345.83,417.51 356.02,417.51 		
			"/>
		<polygon class="st1" points="432.7,348.44 387.18,348.44 387.18,417.51 432.7,417.51 432.7,405.48 400.67,405.48 400.67,388.7 
			428.04,388.7 428.04,376.67 400.67,376.67 400.67,360.47 432.7,360.47 		"/>
	</g>
	<path id="Halo" class="st4" d="M295.69,611.39l-4.44,13.44h-7.36c-14.01,16.26-36.75,42.85-37.39,43.72
		c-3.21,4.32-4.56,9.76-3.78,15.24c0.32,2.33,0.9,4.11,2.01,6.32c1.28,2.55,2.67,4.38,4.71,6.2c5.58,4.96,13.09,6.51,20.4,4.23
		c1.24-0.39,4.4-1.99,5.52-2.8c1-0.72,2.32-1.89,3.05-2.69c1.17-1.27,47.15-55.02,47.64-55.68c2.68-3.64,4.08-8.02,4.02-12.6
		c-0.05-3.26-0.86-6.43-2.35-9.27l-2.5,7.33h-14.17l6.19-16.94c-4.56-1.92-9.77-2.13-14.76-0.46c-0.77,0.26-3.5,1.52-3.93,1.83
		c-0.11,0.07-0.51,0.34-0.87,0.58C297.05,610.25,296.34,610.8,295.69,611.39L295.69,611.39z M136.3,410.14l-0.27,0.02l-0.22,0.02
		c-0.35,0.03-0.66,0.05-0.95,0.08h-0.06l-0.39,0.03l-0.08,0.01c-0.17,0.01-0.32,0.03-0.45,0.04l0.45-0.04l0.08-0.01l0.45-0.04
		l0.95-0.08l0.44-0.04L136.3,410.14c7.19-0.6,24.94-1.99,40.85-3.2v10.58h-45.52v-6.81l1.41-0.28h0.02c-0.01,0-0.02,0-0.02,0
		c-2.38,0.36-4.91,1.22-6.96,2.39c-4.53,2.55-7.97,6.75-9.58,11.67c-1.43,4.38-1.35,9.17,0.24,13.66c0.34,0.97,1.61,3.46,2.19,4.31
		c1.91,2.78,4.34,5.03,7.17,6.63c3.16,1.77,6.65,2.66,10.3,2.61c1.71-0.02,72.31-5.49,73.66-5.7c1.07-0.17,2.45-0.52,3.64-0.91
		c1.34-0.44,3.86-1.75,5.09-2.63c1.86-1.35,3.29-2.75,4.67-4.59c3.5-4.69,4.86-10.58,3.74-16.37c-0.33-1.71-0.81-3.16-1.64-4.89
		c-1.5-3.14-3.38-5.49-6.07-7.57c-3.45-2.67-7.6-4.17-11.86-4.31h-0.03h-0.02h-0.04h-0.04c-0.06,0-0.11,0-0.17,0h0.17h0.08h0.05
		c1.31,0.04,2.61,0.23,3.88,0.58h-10.49l-4.17,12.22h-14.17l4.13-11.3l20.15-1.51C205.6,404.7,150.45,408.96,136.3,410.14
		L136.3,410.14z M207.28,404.7h0.03H207.28L207.28,404.7L207.28,404.7z M800.62,354.22c-2.54,1.61-4.3,3.2-5.91,5.37
		c-1.51,2.02-2.48,3.92-3.23,6.33c-1.31,4.19-1.25,8.56,0.17,12.88c0.43,1.3,1.81,4.01,2.63,5.15c0.7,0.98,2.08,2.58,2.81,3.24
		c4,3.68,9.09,5.68,14.31,5.62c1.29-0.02,71.91-5.47,73.33-5.67c1.11-0.15,2.31-0.42,3.48-0.79c1.24-0.38,3.73-1.55,4.9-2.31
		c4.36-2.8,7.67-7.38,8.89-12.25c1.32-5.31,0.66-10.56-1.9-15.21c-1.5-2.72-3.29-4.78-5.78-6.64c-3.7-2.77-8.07-4.21-12.62-4.15
		c-1.29,0.01-71.99,5.48-73.23,5.66c-1.68,0.25-3.06,0.6-4.62,1.2C802.9,353.01,801.28,353.8,800.62,354.22L800.62,354.22z
		 M215.74,138.27c-7.84,4.95-11.49,14.32-9.04,23.2c0.39,1.42,0.8,2.45,1.56,3.94c1.07,2.08,2.27,3.73,3.93,5.34
		c1.23,1.2,54.98,47.17,56.17,48.03c5.04,3.69,11.66,4.86,17.78,3.13c2.95-0.83,5.9-2.45,8.17-4.47c2.88-2.57,4.86-5.66,6.01-9.37
		c1.37-4.4,1.27-8.84-0.31-13.33c-0.43-1.22-1.73-3.68-2.55-4.83c-0.76-1.05-1.9-2.37-2.7-3.11c-1.18-1.09-54.91-47.01-55.65-47.57
		c-1.83-1.36-3.73-2.35-5.89-3.05c-4.36-1.43-8.83-1.4-13.31,0.09C218.87,136.63,216.68,137.67,215.74,138.27L215.74,138.27z
		 M744.32,98.79c-1.54,0.91-3.23,2.24-4.37,3.44c-1.02,1.08-46.98,54.79-47.77,55.83c-4.14,5.5-5.22,12.68-2.9,19.42
		c0.39,1.14,1.82,3.9,2.53,4.88c1.33,1.85,2.8,3.35,4.61,4.71c7.9,5.92,18.87,5.46,26.24-1.09c0.48-0.43,1.14-1.08,1.48-1.44
		c1.49-1.64,46.88-54.72,47.49-55.55c3.34-4.46,4.7-10.35,3.7-15.96c-0.33-1.85-0.8-3.33-1.64-5.14
		c-3.37-7.23-10.6-11.88-18.6-11.95c-3.01-0.02-5.75,0.54-8.57,1.75c-0.63,0.27-1.2,0.53-1.26,0.56
		C745.19,98.27,744.77,98.52,744.32,98.79L744.32,98.79z M471.04,8.53c-1.95,1.25-2.94,2.03-4.21,3.31
		c-1.67,1.68-3.27,4.02-4.25,6.21c-1.14,2.54-1.79,5.73-1.75,8.55c0.02,1.47,5.52,72.26,5.71,73.55c0.18,1.22,0.53,2.58,0.97,3.85
		c0.44,1.25,1.59,3.51,2.34,4.6c5.55,8.09,15.64,11.23,24.8,7.73c1.24-0.48,3.61-1.77,4.65-2.55c3.69-2.73,6.25-6.31,7.6-10.61
		c0.64-2.03,0.93-3.83,0.96-5.9c0.02-1.36-5.51-72.58-5.75-74.12c-0.36-2.27-0.94-4.02-2.06-6.2c-1.09-2.11-2.2-3.65-3.78-5.21
		c-5.69-5.65-13.88-7.51-21.52-4.92C473.96,7.09,471.58,8.18,471.04,8.53L471.04,8.53z"/>
</g>
<g id="Hub_Location">
	<g class="st5">
		<path class="st1" d="M58.39,728.48H44.91v-28.91H21.53v28.91H8.05v-69.06h13.48v28.23h23.38v-28.23h13.48V728.48z"/>
		<path class="st1" d="M124.26,704.81c0,7.18-2.42,13.01-7.27,17.51c-4.85,4.5-10.9,6.74-18.14,6.74c-7.24,0-13.29-2.25-18.14-6.74
			c-4.85-4.49-7.27-10.33-7.27-17.51v-45.4h13.48v44.91c0,3.95,1.07,7.05,3.2,9.31c2.13,2.26,5.04,3.39,8.73,3.39
			s6.61-1.13,8.78-3.39c2.17-2.26,3.25-5.37,3.25-9.31v-44.91h13.39V704.81z"/>
		<path class="st1" d="M189.34,708.59c0,6.27-1.94,11.15-5.82,14.65c-3.88,3.49-8.99,5.24-15.33,5.24h-28.91v-69.06h27.74
			c6.66,0,11.88,1.75,15.67,5.24s5.67,8.21,5.67,14.16c0,3.49-0.89,6.48-2.67,8.97c-1.78,2.49-3.73,4.25-5.87,5.29
			C186.17,696.05,189.34,701.22,189.34,708.59z M172.56,685.17c1.55-1.46,2.33-3.38,2.33-5.77c0-2.39-0.78-4.32-2.33-5.77
			c-1.55-1.46-3.75-2.18-6.6-2.18h-13.19v15.91h13.19C168.81,687.35,171.01,686.62,172.56,685.17z M173.53,714.03
			c1.55-1.62,2.33-3.65,2.33-6.11c0-2.46-0.78-4.48-2.33-6.06c-1.55-1.58-3.78-2.38-6.69-2.38h-14.06v16.97h14.06
			C169.75,716.45,171.98,715.64,173.53,714.03z"/>
		<path class="st1" d="M268.98,665.62c4.14,4.14,6.21,9.25,6.21,15.33c0,6.08-2.07,11.19-6.21,15.33
			c-4.14,4.14-9.67,6.21-16.59,6.21H239.1v26h-13.48v-69.06h26.77C259.31,659.41,264.84,661.48,268.98,665.62z M258.99,687.79
			c1.81-1.71,2.72-3.99,2.72-6.84c0-2.84-0.91-5.14-2.72-6.89c-1.81-1.75-4.24-2.62-7.27-2.62H239.1v18.92h12.61
			C254.75,690.36,257.18,689.5,258.99,687.79z"/>
		<path class="st1" d="M338.82,728.48H323.2l-13.48-27.55h-9.7v27.55h-13.48v-69.06h27.06c6.85,0,12.3,2.04,16.34,6.11
			c4.04,4.07,6.06,9.09,6.06,15.04c0,4.59-1.2,8.44-3.59,11.54c-2.39,3.1-5.4,5.3-9.02,6.6L338.82,728.48z M319.81,687.16
			c1.81-1.68,2.72-3.88,2.72-6.6s-0.91-4.91-2.72-6.6c-1.81-1.68-4.17-2.52-7.08-2.52h-12.71v18.24h12.71
			C315.64,689.68,318,688.84,319.81,687.16z"/>
		<path class="st1" d="M403.32,728.48h-14.06l-4.07-12.22h-24.54l-4.17,12.22h-14.06l25.12-69.06h10.57L403.32,728.48z
			 M381.59,704.91l-8.44-25.12l-8.73,25.12H381.59z"/>
		<path class="st1" d="M460.07,700.15c0,5.04-0.5,9.18-1.5,12.42c-1,3.23-2.7,6.11-5.09,8.63c-5.17,5.24-11.67,7.86-19.5,7.86
			c-7.37,0-13.58-2.52-18.62-7.57c-2.98-2.97-4.85-6.43-5.63-10.38c-0.78-3.88-1.16-9.6-1.16-17.17c0-7.57,0.39-13.29,1.16-17.17
			c0.78-3.94,2.65-7.4,5.63-10.38c5.04-5.04,11.25-7.57,18.62-7.57c7.44,0,13.39,2.07,17.85,6.21c4.46,4.14,7.18,9.44,8.15,15.91
			h-13.58c-1.68-6.72-5.82-10.09-12.42-10.09c-3.62,0-6.5,1.23-8.63,3.69c-1.36,1.68-2.25,3.7-2.67,6.06
			c-0.42,2.36-0.63,6.81-0.63,13.34c0,6.66,0.21,11.17,0.63,13.53c0.42,2.36,1.31,4.35,2.67,5.97c2,2.39,4.88,3.59,8.63,3.59
			c4.01,0,7.21-1.29,9.6-3.88c2.07-2.39,3.1-5.46,3.1-9.21v-2.62h-12.71v-11.25h26.09V700.15z"/>
		<path class="st1" d="M522.44,704.81c0,7.18-2.42,13.01-7.28,17.51c-4.85,4.5-10.9,6.74-18.14,6.74c-7.24,0-13.29-2.25-18.14-6.74
			c-4.85-4.49-7.27-10.33-7.27-17.51v-45.4h13.48v44.91c0,3.95,1.07,7.05,3.2,9.31c2.13,2.26,5.04,3.39,8.73,3.39
			s6.61-1.13,8.78-3.39c2.17-2.26,3.25-5.37,3.25-9.31v-44.91h13.39V704.81z"/>
		<path class="st1" d="M582.96,728.48h-45.49v-69.06h45.49v12.03h-32.01v16.2h27.26v12.03h-27.26v16.78h32.01V728.48z"/>
	</g>
</g>
</svg>
